<svg id="Layer_1" data-name="Layer 1" xmlns="http://www.w3.org/2000/svg" viewBox="0 0 515.1 755.74"><defs><style>.cls-1{fill:#6da742;}.cls-2{fill:none;}.cls-3{fill:#1d77bd;}.cls-4{fill:#155785;}.cls-5{fill:#f49d15;}.cls-6{fill:#f9b21e;}.cls-7{fill:#4e722e;}.cls-8{fill:#c2284f;}.cls-9{fill:#941f42;}.cls-10{fill:#905ba1;}.cls-11{fill:#2eab62;}.cls-12{fill:#764736;}.cls-13{fill:#553426;}.cls-14{fill:#3a251c;}.cls-15{fill:#cddeea;}.cls-16{fill:#9cbdc8;}.cls-17{fill:#333;}.cls-18{fill:#202020;}.cls-19{fill:#aab9c1;}.cls-20{fill:#7b939a;}.cls-21{fill:#f6f6f6;}.cls-22{fill:#364a5e;}.cls-23{fill:#70a42e;}.cls-24{fill:#ad2a39;}.cls-25{fill:#fff;}.cls-26{fill:#3c3c3b;}.cls-27{fill:#2d3e50;}.cls-28{fill:#ecf0f1;}.cls-29{fill:#f1c413;}.cls-30{fill:#1e1e1c;}</style></defs><path class="cls-1" d="M376,669.31l-1.81-.34c3.12-16.57,1.25-25.37-.4-33.13s-3.17-14.92.42-27.9l1.77.49c-3.47,12.54-2,19.25-.39,27C377.25,643.39,379.16,652.38,376,669.31Z" transform="translate(-51.74 -56.58)"/><path class="cls-2" d="M375.07,610a1.76,1.76,0,0,1,1.17.48,1.73,1.73,0,0,1,.94-.85,1.75,1.75,0,0,1,1.26,0,2.56,2.56,0,0,0,2-2.76,1.19,1.19,0,0,0,.73-2,1.19,1.19,0,0,0,0-2.14,1.19,1.19,0,0,0-.73-2,1.75,1.75,0,0,1-.18-1.25,1.7,1.7,0,0,1-1.8-1.5,1.75,1.75,0,0,1-1.26,0,1.73,1.73,0,0,1-.94-.85,1.78,1.78,0,0,1-1.17.47l-.22,0v12.38Z" transform="translate(-51.74 -56.58)"/><path class="cls-2" d="M373,598.07a1.2,1.2,0,0,0-1.86,1.07,1.19,1.19,0,0,0-1.37,1.64,1.19,1.19,0,0,0-.73,2,1.19,1.19,0,0,0,0,2.14,1.19,1.19,0,0,0,.73,2,1.73,1.73,0,0,1,.17,1.25,1.78,1.78,0,0,1,1.2.39,1.8,1.8,0,0,1,.6,1.12,1.69,1.69,0,0,1,2.2.8,1.83,1.83,0,0,1,.94-.45V597.67a1.86,1.86,0,0,1-.94-.44A1.79,1.79,0,0,1,373,598.07Z" transform="translate(-51.74 -56.58)"/><path class="cls-3" d="M373.91,610.5a1.69,1.69,0,0,0-2.2-.8,1.8,1.8,0,0,0-.6-1.12,1.78,1.78,0,0,0-1.2-.39,1.73,1.73,0,0,0-.17-1.25,1.19,1.19,0,0,1-.73-2,1.19,1.19,0,0,1,0-2.14,1.19,1.19,0,0,1,.73-2,1.19,1.19,0,0,1,1.37-1.64,1.2,1.2,0,0,1,1.86-1.07,1.79,1.79,0,0,0,.94-.84,1.86,1.86,0,0,0,.94.44v-7a2.47,2.47,0,0,0-1.79,1.72,9.42,9.42,0,0,1-6.47,1.34,2.61,2.61,0,0,1-2.95,3.51,2.39,2.39,0,0,0,.5,2.63,9.33,9.33,0,0,1-2.06,6.27,2.6,2.6,0,0,1,1.56,4.3,2.61,2.61,0,0,1,2.95,3.51,2.37,2.37,0,0,0,2.66,0,2,2,0,0,0,3.8,1.38,2.49,2.49,0,0,0,1.8,1.71v-7A1.83,1.83,0,0,0,373.91,610.5Z" transform="translate(-51.74 -56.58)"/><path class="cls-4" d="M386.71,603.86a9.3,9.3,0,0,1-.21-6.6,2.61,2.61,0,0,1-2.95-3.51,2.61,2.61,0,0,1-4-2.29,2.37,2.37,0,0,0-2.5.95,2.36,2.36,0,0,0-2-1.74l-.22,0v7l.22,0a1.78,1.78,0,0,0,1.17-.47,1.73,1.73,0,0,0,.94.85,1.75,1.75,0,0,0,1.26,0,1.7,1.7,0,0,0,1.8,1.5,2.53,2.53,0,0,1,.91,3.26,1.19,1.19,0,0,1,0,2.14,1.19,1.19,0,0,1-.73,2,1.2,1.2,0,0,1-1.38,1.64,1.8,1.8,0,0,0-.6,1.12,1.75,1.75,0,0,0-1.26,0,1.73,1.73,0,0,0-.94.85,1.76,1.76,0,0,0-1.17-.48l-.22,0v7l.22,0a2.38,2.38,0,0,0,2-1.74,9.36,9.36,0,0,1,6.46-1.35,2.61,2.61,0,0,1,2.95-3.51,2.6,2.6,0,0,1,1.57-4.3A2.37,2.37,0,0,0,386.71,603.86Z" transform="translate(-51.74 -56.58)"/><path class="cls-5" d="M375.07,595.8v16.13a8.06,8.06,0,0,0,0-16.13Z" transform="translate(-51.74 -56.58)"/><path class="cls-6" d="M367,603.86a8.06,8.06,0,0,0,8.06,8.06V595.8A8.06,8.06,0,0,0,367,603.86Z" transform="translate(-51.74 -56.58)"/><path class="cls-1" d="M384.1,648.62c2.13-1.12,4-3.36,6.44-6.14-3.56,2.22-11.52,2.69-13.37,11.74A19.23,19.23,0,0,1,384.1,648.62Z" transform="translate(-51.74 -56.58)"/><path class="cls-7" d="M390.54,642.48h0c-2.46,2.78-4.3,5-6.44,6.14a19.23,19.23,0,0,0-6.93,5.6C379.46,653.9,391,652.62,390.54,642.48Z" transform="translate(-51.74 -56.58)"/><path class="cls-1" d="M369.34,639.51c-2.13-1.12-4-3.36-6.44-6.14,3.56,2.22,11.52,2.69,13.37,11.74A19.23,19.23,0,0,0,369.34,639.51Z" transform="translate(-51.74 -56.58)"/><path class="cls-7" d="M362.9,633.37h0c2.46,2.78,4.3,5,6.44,6.14a19.23,19.23,0,0,1,6.93,5.6C374,644.8,362.43,643.52,362.9,633.37Z" transform="translate(-51.74 -56.58)"/><path class="cls-1" d="M341.27,672.2l-1.53-.29c2.63-14,1.05-21.45-.34-28s-2.68-12.61.35-23.58l1.5.41c-2.93,10.6-1.73,16.28-.33,22.85S344,657.88,341.27,672.2Z" transform="translate(-51.74 -56.58)"/><path class="cls-2" d="M340.5,622.08a1.49,1.49,0,0,1,1,.4,1.46,1.46,0,0,1,.79-.72,1.48,1.48,0,0,1,1.06,0,2.16,2.16,0,0,0,1.67-2.33,1,1,0,0,0,.62-1.7,1,1,0,0,0,0-1.81,1,1,0,0,0-.62-1.7,1.48,1.48,0,0,1-.15-1.06,1.43,1.43,0,0,1-1.52-1.27,1.48,1.48,0,0,1-1.06,0,1.46,1.46,0,0,1-.79-.72,1.51,1.51,0,0,1-1,.4l-.19,0V622.1Z" transform="translate(-51.74 -56.58)"/><path class="cls-2" d="M338.72,612a1,1,0,0,0-1.57.9,1,1,0,0,0-1.16,1.39,1,1,0,0,0-.62,1.7,1,1,0,0,0,0,1.81,1,1,0,0,0,.62,1.7,1.47,1.47,0,0,1,.15,1.05,1.5,1.5,0,0,1,1,.33,1.52,1.52,0,0,1,.5.94,1.43,1.43,0,0,1,1.86.67,1.54,1.54,0,0,1,.8-.38V611.63a1.57,1.57,0,0,1-.8-.38A1.51,1.51,0,0,1,338.72,612Z" transform="translate(-51.74 -56.58)"/><path class="cls-8" d="M339.52,622.48a1.43,1.43,0,0,0-1.86-.67,1.52,1.52,0,0,0-.5-.94,1.5,1.5,0,0,0-1-.33,1.47,1.47,0,0,0-.15-1.05,1,1,0,0,1-.62-1.7,1,1,0,0,1,0-1.81,1,1,0,0,1,.62-1.7,1,1,0,0,1,1.16-1.39,1,1,0,0,1,1.57-.9,1.51,1.51,0,0,0,.79-.71,1.57,1.57,0,0,0,.8.38v-5.9a2.09,2.09,0,0,0-1.51,1.45,8,8,0,0,1-5.47,1.14,2.2,2.2,0,0,1-2.49,3,2,2,0,0,0,.42,2.22,7.89,7.89,0,0,1-1.74,5.3,2.2,2.2,0,0,1,1.32,3.64,2.21,2.21,0,0,1,2.49,3,2.21,2.21,0,0,1,3.36,1.94,2,2,0,0,0,2.11-.8,2.1,2.1,0,0,0,1.52,1.45v-5.9A1.54,1.54,0,0,0,339.52,622.48Z" transform="translate(-51.74 -56.58)"/><path class="cls-9" d="M350.34,616.86a7.86,7.86,0,0,1-.18-5.58,2.2,2.2,0,0,1-2.49-3,2.21,2.21,0,0,1-3.35-1.94,2,2,0,0,0-2.11.8,2,2,0,0,0-1.71-1.47l-.19,0v5.9l.19,0a1.51,1.51,0,0,0,1-.4,1.46,1.46,0,0,0,.79.72,1.48,1.48,0,0,0,1.06,0,1.43,1.43,0,0,0,1.52,1.27,2.14,2.14,0,0,1,.77,2.76,1,1,0,0,1,0,1.81,1,1,0,0,1-.62,1.7,1,1,0,0,1-1.17,1.39,1.52,1.52,0,0,0-.5.94,1.48,1.48,0,0,0-1.06,0,1.46,1.46,0,0,0-.79.72,1.49,1.49,0,0,0-1-.4l-.19,0V628l.19,0a2,2,0,0,0,1.71-1.47,7.91,7.91,0,0,1,5.46-1.14,2.21,2.21,0,0,1,2.49-3,2.2,2.2,0,0,1,1.33-3.64A2,2,0,0,0,350.34,616.86Z" transform="translate(-51.74 -56.58)"/><path class="cls-5" d="M340.5,610v13.63a6.82,6.82,0,0,0,0-13.63Z" transform="translate(-51.74 -56.58)"/><path class="cls-6" d="M333.69,616.86a6.82,6.82,0,0,0,6.82,6.82V610A6.82,6.82,0,0,0,333.69,616.86Z" transform="translate(-51.74 -56.58)"/><path class="cls-1" d="M347.52,647.49c1.8-.94,3.37-2.84,5.44-5.19-3,1.88-9.74,2.27-11.3,9.92A16.26,16.26,0,0,1,347.52,647.49Z" transform="translate(-51.74 -56.58)"/><path class="cls-7" d="M353,642.31h0c-2.08,2.35-3.64,4.25-5.44,5.19a16.26,16.26,0,0,0-5.86,4.73C343.6,652,353.36,650.88,353,642.31Z" transform="translate(-51.74 -56.58)"/><path class="cls-1" d="M336.33,654c-1.8-.94-3.37-2.84-5.44-5.19,3,1.88,9.74,2.27,11.3,9.92A16.26,16.26,0,0,0,336.33,654Z" transform="translate(-51.74 -56.58)"/><path class="cls-7" d="M330.88,648.82h0c2.08,2.35,3.64,4.25,5.44,5.19a16.26,16.26,0,0,1,5.86,4.73C340.25,658.48,330.49,657.4,330.88,648.82Z" transform="translate(-51.74 -56.58)"/><path class="cls-1" d="M117.72,670.81l-1.7-.29c2.92-14.27,1.17-21.85-.38-28.53s-3-12.85.39-24l1.66.42c-3.25,10.8-1.92,16.58-.37,23.27S120.71,656.23,117.72,670.81Z" transform="translate(-51.74 -56.58)"/><path class="cls-2" d="M116.87,619.76a1.73,1.73,0,0,1,1.1.41,1.58,1.58,0,0,1,.88-.73,1.78,1.78,0,0,1,1.18,0,1.52,1.52,0,0,1,.56-1,1.79,1.79,0,0,1,1.12-.34,1.44,1.44,0,0,1,.17-1.07,1.63,1.63,0,0,1,.93-.67,1.42,1.42,0,0,1-.25-1.06,1,1,0,0,0,0-1.84,1.42,1.42,0,0,1,.25-1.06,1.63,1.63,0,0,1-.93-.67,1.4,1.4,0,0,1-.17-1.08,1.77,1.77,0,0,1-1.13-.34,1.49,1.49,0,0,1-.56-1,1.78,1.78,0,0,1-1.18,0,1.58,1.58,0,0,1-.88-.73,1.76,1.76,0,0,1-1.1.41l-.21,0v10.66Z" transform="translate(-51.74 -56.58)"/><path class="cls-2" d="M114.89,609.46a1.8,1.8,0,0,1-1.19,0,1.49,1.49,0,0,1-.56,1,1.74,1.74,0,0,1-1.13.34,1.4,1.4,0,0,1-.16,1.08,1.63,1.63,0,0,1-.93.67,1.42,1.42,0,0,1,.25,1.06,1,1,0,0,0,0,1.84,1.42,1.42,0,0,1-.25,1.06,1.63,1.63,0,0,1,.93.67,1.39,1.39,0,0,1,.16,1.07,1.77,1.77,0,0,1,1.13.34,1.52,1.52,0,0,1,.56,1,1.8,1.8,0,0,1,1.19,0,1.62,1.62,0,0,1,.88.72,1.78,1.78,0,0,1,.88-.39V609.12a1.81,1.81,0,0,1-.88-.38A1.64,1.64,0,0,1,114.89,609.46Z" transform="translate(-51.74 -56.58)"/><path class="cls-8" d="M115.77,620.17a1.62,1.62,0,0,0-.88-.72,1.8,1.8,0,0,0-1.19,0,1.52,1.52,0,0,0-.56-1,1.77,1.77,0,0,0-1.13-.34,1.39,1.39,0,0,0-.16-1.07,1.63,1.63,0,0,0-.93-.67,1.42,1.42,0,0,0,.25-1.06,1,1,0,0,1,0-1.84,1.42,1.42,0,0,0-.25-1.06,1.63,1.63,0,0,0,.93-.67,1.4,1.4,0,0,0,.16-1.08,1.74,1.74,0,0,0,1.13-.34,1.49,1.49,0,0,0,.56-1,1.8,1.8,0,0,0,1.19,0,1.64,1.64,0,0,0,.88-.72,1.81,1.81,0,0,0,.88.38v-6a2.25,2.25,0,0,0-1.68,1.48,2.34,2.34,0,0,0-2.34-.81,2,2,0,0,0-1.23,2,2.39,2.39,0,0,0-2.5,0,1.93,1.93,0,0,0-.4,2.27,2.33,2.33,0,0,0-2.36.76,1.93,1.93,0,0,0,.47,2.26,2.17,2.17,0,0,0-1.93,1.45c-.14.73.38,1.47,1.28,2-.9.5-1.42,1.24-1.28,2a2.18,2.18,0,0,0,1.93,1.45,1.93,1.93,0,0,0-.47,2.26,2.33,2.33,0,0,0,2.36.76,1.92,1.92,0,0,0,.4,2.26,2.39,2.39,0,0,0,2.5,0,2,2,0,0,0,1.23,2,2.33,2.33,0,0,0,2.34-.81,2.27,2.27,0,0,0,1.68,1.48v-6A1.78,1.78,0,0,0,115.77,620.17Z" transform="translate(-51.74 -56.58)"/><path class="cls-9" d="M127.79,614.45a2,2,0,0,0,1.28-2,2.18,2.18,0,0,0-1.94-1.45,1.92,1.92,0,0,0,.47-2.26,2.33,2.33,0,0,0-2.36-.76,1.91,1.91,0,0,0-.4-2.27,2.38,2.38,0,0,0-2.49,0,2,2,0,0,0-1.23-2,2.33,2.33,0,0,0-2.34.81,2.18,2.18,0,0,0-1.89-1.5l-.21,0v6l.21,0a1.76,1.76,0,0,0,1.1-.41,1.58,1.58,0,0,0,.88.73,1.78,1.78,0,0,0,1.18,0,1.49,1.49,0,0,0,.56,1,1.77,1.77,0,0,0,1.13.34,1.4,1.4,0,0,0,.17,1.08,1.63,1.63,0,0,0,.93.67,1.42,1.42,0,0,0-.25,1.06,1,1,0,0,1,0,1.84,1.42,1.42,0,0,0,.25,1.06,1.63,1.63,0,0,0-.93.67,1.44,1.44,0,0,0-.17,1.07,1.79,1.79,0,0,0-1.12.34,1.52,1.52,0,0,0-.56,1,1.78,1.78,0,0,0-1.18,0,1.58,1.58,0,0,0-.88.73,1.73,1.73,0,0,0-1.1-.41l-.21,0v6l.21,0a2.19,2.19,0,0,0,1.9-1.5,2.33,2.33,0,0,0,2.34.81,2,2,0,0,0,1.23-2,2.38,2.38,0,0,0,2.49,0,1.9,1.9,0,0,0,.4-2.26,2.32,2.32,0,0,0,2.36-.76,1.91,1.91,0,0,0-.47-2.26,2.19,2.19,0,0,0,1.94-1.45A2,2,0,0,0,127.79,614.45Z" transform="translate(-51.74 -56.58)"/><path class="cls-5" d="M116.87,607.5v13.89c4.18,0,7.57-3.11,7.57-6.94S121.05,607.5,116.87,607.5Z" transform="translate(-51.74 -56.58)"/><path class="cls-6" d="M109.3,614.45c0,3.84,3.39,6.94,7.57,6.94V607.5C112.69,607.5,109.3,610.61,109.3,614.45Z" transform="translate(-51.74 -56.58)"/><path class="cls-1" d="M124.66,645.65c2-1,3.74-2.89,6-5.29-3.34,1.91-10.81,2.32-12.54,10.11A17.75,17.75,0,0,1,124.66,645.65Z" transform="translate(-51.74 -56.58)"/><path class="cls-7" d="M130.7,640.36h0c-2.31,2.39-4,4.32-6,5.29a17.75,17.75,0,0,0-6.5,4.82C120.31,650.2,131.14,649.1,130.7,640.36Z" transform="translate(-51.74 -56.58)"/><path class="cls-1" d="M112.24,652.29c-2-1-3.74-2.89-6-5.29,3.34,1.91,10.81,2.32,12.54,10.11A17.75,17.75,0,0,0,112.24,652.29Z" transform="translate(-51.74 -56.58)"/><path class="cls-7" d="M106.19,647h0c2.31,2.39,4,4.32,6,5.29a17.75,17.75,0,0,1,6.5,4.82C116.59,656.84,105.75,655.74,106.19,647Z" transform="translate(-51.74 -56.58)"/><path class="cls-1" d="M84.19,671.39l-2.11-.4c3.64-19.36,1.46-29.64-.47-38.71s-3.7-17.43.49-32.59l2.07.57c-4.05,14.65-2.39,22.5-.46,31.57C85.68,641.1,87.91,651.6,84.19,671.39Z" transform="translate(-51.74 -56.58)"/><path class="cls-10" d="M83.13,602.12a2.05,2.05,0,0,1,1.37.56,2,2,0,0,1,1.1-1,2,2,0,0,1,1.47.05A2,2,0,0,1,89.16,600a2.1,2.1,0,0,1,.22-1.46,2,2,0,0,1,1.16-.91,3,3,0,0,0-.31-3.94,2.06,2.06,0,0,1,.31-1.44,2,2,0,0,1-1.37-2.37,2,2,0,0,1-2.1-1.76,2,2,0,0,1-1.47.05,2,2,0,0,1-1.1-1,2.08,2.08,0,0,1-1.37.55l-.26,0v14.47Z" transform="translate(-51.74 -56.58)"/><path class="cls-10" d="M80.67,588.15a2.06,2.06,0,0,1-1.48-.05,2.07,2.07,0,0,1-.7,1.3,2,2,0,0,1-1.41.46,2,2,0,0,1-1.36,2.37,3,3,0,0,0,.31,3.94,2.06,2.06,0,0,1-.31,1.44,2,2,0,0,1,1.16.91,2,2,0,0,1,.2,1.46,2.08,2.08,0,0,1,1.41.46,2.11,2.11,0,0,1,.7,1.31,2,2,0,0,1,2.57.93,2.13,2.13,0,0,1,1.1-.53V587.68a2.17,2.17,0,0,1-1.1-.52A2.09,2.09,0,0,1,80.67,588.15Z" transform="translate(-51.74 -56.58)"/><path class="cls-3" d="M81.77,602.67a2,2,0,0,0-2.57-.93,2.11,2.11,0,0,0-.7-1.31,2.08,2.08,0,0,0-1.41-.46,2,2,0,0,0-.2-1.46,2,2,0,0,0-1.16-.91,3,3,0,0,1,.31-3.94,2.06,2.06,0,0,0-.31-1.44,2,2,0,0,0,1.36-2.37,2,2,0,0,0,1.41-.46,2.07,2.07,0,0,0,.7-1.3,2.06,2.06,0,0,0,1.48.05,2.09,2.09,0,0,0,1.1-1,2.17,2.17,0,0,0,1.1.52v-8.16a2.89,2.89,0,0,0-2.09,2,2.39,2.39,0,0,0-4.45,1.61,2.39,2.39,0,0,0-3.61,3,2.39,2.39,0,0,0-2.36,4.09A10.9,10.9,0,0,1,68,597.6a2.76,2.76,0,0,0,2.41,2,2.39,2.39,0,0,0,2.36,4.09,2.39,2.39,0,0,0,3.61,3,2.39,2.39,0,0,0,4.44,1.61,2.91,2.91,0,0,0,2.1,2v-8.16A2.13,2.13,0,0,0,81.77,602.67Z" transform="translate(-51.74 -56.58)"/><path class="cls-4" d="M96.73,594.91a2.38,2.38,0,0,0-.82-4.64,2.39,2.39,0,0,0-2.36-4.09,2.39,2.39,0,0,0-3.61-3,2.39,2.39,0,0,0-4.45-1.61,2.76,2.76,0,0,0-2.36-2l-.26,0v8.16l.26,0a2.08,2.08,0,0,0,1.37-.55,2,2,0,0,0,1.1,1,2,2,0,0,0,1.47-.05,2,2,0,0,0,2.1,1.76,2,2,0,0,0,1.37,2.37,3,3,0,0,1-.31,3.94,2.06,2.06,0,0,0,.31,1.44,2,2,0,0,0-1.16.91,2.1,2.1,0,0,0-.22,1.46,2,2,0,0,0-2.09,1.76,2,2,0,0,0-1.47-.05,2,2,0,0,0-1.1,1,2.05,2.05,0,0,0-1.37-.56l-.26,0v8.16l.26,0a2.78,2.78,0,0,0,2.37-2,2.39,2.39,0,0,0,4.44-1.61,2.38,2.38,0,0,0,3.61-3,2.39,2.39,0,0,0,2.36-4.09,2.39,2.39,0,0,0,.82-4.65Z" transform="translate(-51.74 -56.58)"/><path class="cls-5" d="M83.14,585.5v18.84a9.42,9.42,0,0,0,0-18.84Z" transform="translate(-51.74 -56.58)"/><path class="cls-6" d="M73.71,594.92a9.42,9.42,0,0,0,9.42,9.42V585.5A9.42,9.42,0,0,0,73.71,594.92Z" transform="translate(-51.74 -56.58)"/><path class="cls-1" d="M89.66,620.12c2.49-1.31,4.65-3.92,7.52-7.17-4.16,2.59-13.46,3.14-15.62,13.71A22.47,22.47,0,0,1,89.66,620.12Z" transform="translate(-51.74 -56.58)"/><path class="cls-7" d="M97.19,612.95h0c-2.87,3.25-5,5.87-7.52,7.17a22.47,22.47,0,0,0-8.09,6.54C84.24,626.29,97.73,624.8,97.19,612.95Z" transform="translate(-51.74 -56.58)"/><path class="cls-1" d="M75.12,627.45c-2.49-1.31-4.65-3.92-7.52-7.17,4.16,2.59,13.46,3.14,15.62,13.71A22.47,22.47,0,0,0,75.12,627.45Z" transform="translate(-51.74 -56.58)"/><path class="cls-7" d="M67.6,620.28h0c2.87,3.25,5,5.87,7.52,7.17A22.47,22.47,0,0,1,83.21,634C80.54,633.63,67,632.13,67.6,620.28Z" transform="translate(-51.74 -56.58)"/><line class="cls-11" x1="197.11" y1="614.14" x2="195.09" y2="613.79"/><path class="cls-12" d="M414.9,675.89V684a2.3,2.3,0,0,1,0,.33,3.46,3.46,0,0,1-1.65,2.64l-2.6,1.57L403.13,693a.61.61,0,0,1-.16.1l-10,5.28a3.44,3.44,0,0,0-1.83,3.06v7.7c0,.16,0,.33,0,.49a3.5,3.5,0,0,1-1.26,2.2l-9.44,7.61L377.4,722l-3,2.45a3.43,3.43,0,0,0-1.23,2l-3.87,19.45a3.47,3.47,0,0,1-1.9,2.45l-19.17,9.13a3.49,3.49,0,0,1-3,0l-13.71-6.78a3.37,3.37,0,0,0-2.31-.27l-21.31,4.94a3.49,3.49,0,0,0-2,1.29l-10,13.16a3.86,3.86,0,0,1-1,.89l-8,4.67-4.21,2.48a3.8,3.8,0,0,1-1.25.45l-3.62.53-14.69,2.14a3.29,3.29,0,0,1-1.47-.12,2.46,2.46,0,0,1-.55-.21L260,780l-8.55-4.21a3.53,3.53,0,0,0-2.58-.19l-15.7,4.94a3.49,3.49,0,0,0-2.17,2l-7.12,17.48a3.49,3.49,0,0,1-1.26,1.56L214.74,807a3.5,3.5,0,0,1-1.94.61h-22a3.6,3.6,0,0,0-1.32.25l-10.16,4.21a3.45,3.45,0,0,1-4.78-3.19,3.4,3.4,0,0,0-.85-2.26l-8-9.29a3.47,3.47,0,0,1-.83-2.26v-6.63a3.34,3.34,0,0,0-.56-1.87,3.29,3.29,0,0,0-.55-.65l-9-8.4a3.47,3.47,0,0,0-4.82.12l-6.71,6.86a3.45,3.45,0,0,1-4.85.09l-3.65-3.47a3.5,3.5,0,0,0-2.39-.95H123a3.45,3.45,0,0,1-2.12-.74l-9.18-7.2-.8-.62a3.7,3.7,0,0,1-.49-.47,3.51,3.51,0,0,1-.77-2.85l1.11-6.23a3.52,3.52,0,0,0-.4-2.31l-5.86-10.39a3.45,3.45,0,0,0-3-1.75H92.92L80.59,727l.16-.55a3.53,3.53,0,0,0-.22-2.52l-9.76-19.53-2.39-4.78a3.55,3.55,0,0,0-.31-.5l-.39-.52-5.82-7.88c-.24-.36-.5-.7-.76-1.05l-.1-.13-4.39-6h0l-1.84-2.49-2.34-3.18a3.28,3.28,0,0,1-.53-1.07,2.71,2.71,0,0,1-.13-.77.84.84,0,0,1,0-.19,3.47,3.47,0,0,1,3.47-3.47H411.44A3.45,3.45,0,0,1,414.9,675.89Z" transform="translate(-51.74 -56.58)"/><path class="cls-13" d="M395.73,679.78c-.45,6.2-6.63,11.6-11.89,9.32,1.16,7.61-2.29,15.19-6.81,21.09C366.75,723.6,350.17,730.9,334.28,729A80,80,0,0,1,364,716.13c-10.91-.52-22-1-32.51,2.2-14,4.3-26.47,15.08-41,15.18a43.68,43.68,0,0,0-6.41-3.81c-11.87-6.16-24.32-12.45-37.47-12-8.59.31-16.84,3.55-24.81,7.09a296.94,296.94,0,0,0-26.55,13.46c-6.07,3.46-12.14,7.24-16.77,12.75s-7.67,13.1-6.54,20.51c1.75,11.48,12.94,21,10.24,32.3-7.83,1.88-16.4-5.48-16.57-14.27,2.36-.19,4.72-.36,7.06-.55-1.32-3.16-5.06-3.15-8.4-2.45a3.29,3.29,0,0,0-.55-.65l-9-8.4a3.47,3.47,0,0,0-4.82.12l-6.71,6.86a3.45,3.45,0,0,1-4.85.09l-3.65-3.47a3.5,3.5,0,0,0-2.39-.95H123a3.45,3.45,0,0,1-2.12-.74l-9.19-7.2,0-1.17-1.34.07a3.51,3.51,0,0,1-.77-2.85l1.11-6.23a3.52,3.52,0,0,0-.4-2.31l-5.86-10.39a3.45,3.45,0,0,0-3-1.75H92.92c-.61-.3-1.22-.59-1.8-.93-6.22-3.8-7.75-12.15-10.54-19.6l-9.82-22.6c.07-1.31.22-2.61.37-3.9q1.4-12.22,2.83-24.45a15.39,15.39,0,0,1,.77-3.65h28.21a3,3,0,0,1-1.68,1.29c.61,1.25,1.2,2.49,1.81,3.74a103.35,103.35,0,0,1,15.37-5H394.23A14.36,14.36,0,0,1,395.73,679.78Z" transform="translate(-51.74 -56.58)"/><path class="cls-14" d="M144.85,703.3a99.76,99.76,0,0,1-2.2,13.86c-.36,1.69-.71,3.38-1.05,5.09-.06.22-.16.52-.4.52h0a119.07,119.07,0,0,0-.83,19.38c-4.88,1.13-10.16,2.23-14.76.25-5.86-2.54-9.26-9.54-15.49-10.88-5.55-1.17-10.82,2.64-16.34,3.89a18.68,18.68,0,0,1-5.74.36,3.88,3.88,0,0,1-2.11-.65,4.05,4.05,0,0,1-1.17-1.71c-3.47-7.91-4.18-6.83-4.9-15.45-.09-1.11-2.2-4.76-2.7-5.76C76,710.05,76.51,705,74.31,704A16.44,16.44,0,0,1,71,701.89a23.57,23.57,0,0,1-3.31-3.25c-2-2.37-3.84-5.13-5.82-7.88-.24-.36-.5-.7-.76-1.05l-.1-.13c-1.77-2.3-4.23-3.06-4.39-6h0a2.85,2.85,0,0,0-1.84-2.49c-.42-.24-.88-.47-1.35-.77s-.71-1.48-1-2.4a2.32,2.32,0,0,0-.53-1.07,2.71,2.71,0,0,1-.13-.77h0l4.54-.59c4.6.15,4.93-3.35,9.79-3.07l8.5.53c4,.25,7.92.49,11.6.68,5.22.25,10.52.59,15.71,1.37,1.68.27,3.35.56,5,.93l.61.15a50.06,50.06,0,0,1,10.31,3.52c1.77.83,3.62,1.81,5.55,1.6a34.11,34.11,0,0,0,3.77-1.1c3.64-.79,7.12,1.6,10.06,3.87a8.17,8.17,0,0,1,2.8,3c.36.83.45,1.77.8,2.6a2.08,2.08,0,0,0,2.09,1.39c.31-.06.65-.24.92-.09a.89.89,0,0,1,.36.68A49.79,49.79,0,0,1,144.85,703.3Z" transform="translate(-51.74 -56.58)"/><path class="cls-14" d="M414.9,675.89V684a2.29,2.29,0,0,1,0,.33,7.78,7.78,0,0,0-2.48,1.65,12.93,12.93,0,0,0-1.77,2.57L403.13,693a.61.61,0,0,1-.16.1l-10,5.28a3.44,3.44,0,0,0-1.83,3.06v7.7c0,.16,0,.33,0,.49a2.67,2.67,0,0,1-1.84-2.26c-3.47-.49-5.67,3.65-6.69,7.08a18.89,18.89,0,0,1-2.17,5,5.52,5.52,0,0,1-3.06,2.46,4.09,4.09,0,0,1-1.14.15,2.37,2.37,0,0,1-1.44-.45,3.31,3.31,0,0,1-1-2.27c-1.68-12.75,7.11-24.1,11.66-36.09a14.43,14.43,0,0,1,2-4.15c1.54-1.88,4-2.7,6-4.07a7.4,7.4,0,0,0,2.37-2.64h15.55A3.45,3.45,0,0,1,414.9,675.89Z" transform="translate(-51.74 -56.58)"/><path class="cls-14" d="M306,713.86c1.75-1.81,2.77-4.26,4.66-5.92,3.35-2.93,8.34-2.62,12.77-2.13l-.13,5a5,5,0,0,1,7-1.35,36.9,36.9,0,0,1-15.71,11.66A26.39,26.39,0,0,1,302.74,723a4.45,4.45,0,0,1-3.11-1.24c-1.38-1.65-.92-5.17-3.07-5.22A10,10,0,0,0,306,713.86Z" transform="translate(-51.74 -56.58)"/><path class="cls-14" d="M131.68,751.67c0,3.54,3.13,6.19,6,8.2,9.27,6.43,20.58,12.08,31.45,9a33.38,33.38,0,0,1-14.54-12.46c-1.31-2.05-2.59-4.42-4.88-5.24a9.59,9.59,0,0,0-3.77-.3Z" transform="translate(-51.74 -56.58)"/><path class="cls-13" d="M286.92,775.32l-4.21,2.48a3.81,3.81,0,0,1-1.25.45l-3.62.53-14.69,2.14a3.29,3.29,0,0,1-1.47-.12,2.46,2.46,0,0,1-.55-.21L260,780a135.26,135.26,0,0,1,13.24-20l-6.62,2.12q10.13-12,20.28-23.92C289.76,750.36,288.41,763,286.92,775.32Z" transform="translate(-51.74 -56.58)"/><path class="cls-14" d="M282,774.48a3.23,3.23,0,0,1-2,1.62,5,5,0,0,1-1.71-.22,5.76,5.76,0,0,0-4.88,1.34c-1.08-1.46-.7-3.6.32-5.11a22.59,22.59,0,0,1,3.88-3.81A13.68,13.68,0,0,0,282,761.4c.46-2.05.27-4.25,1-6.22A19.4,19.4,0,0,1,282,774.48Z" transform="translate(-51.74 -56.58)"/><path class="cls-1" d="M414.9,675.73v.37H51.74v-.37a8.7,8.7,0,0,1,8.7-8.7H406.2A8.7,8.7,0,0,1,414.9,675.73Z" transform="translate(-51.74 -56.58)"/><polygon class="cls-8" points="174.99 226.15 138.05 263.08 119.63 315.2 174.99 259.85 174.99 226.15"/><polygon class="cls-1" points="174.99 206.67 148.71 232.95 138.05 263.08 174.99 226.15 174.99 206.67"/><polygon class="cls-8" points="174.99 158.61 174.99 158.61 148.71 232.95 174.99 206.67 174.99 158.61"/><polygon class="cls-1" points="174.99 259.85 119.63 315.2 108.98 345.34 174.99 279.33 174.99 259.85"/><polygon class="cls-1" points="174.99 313.76 142.79 345.96 162.27 345.96 174.99 333.24 174.99 313.76"/><polygon class="cls-8" points="174.99 333.24 162.27 345.96 174.99 345.96 174.99 333.24"/><polygon class="cls-8" points="174.99 279.33 108.98 345.34 108.76 345.96 142.79 345.96 174.99 313.76 174.99 279.33"/><polygon class="cls-9" points="174.99 313.76 215.51 273.24 206.51 247.8 174.99 279.33 174.99 313.76"/><polygon class="cls-7" points="174.99 279.33 206.51 247.8 201.43 233.41 174.99 259.85 174.99 279.33"/><polygon class="cls-9" points="174.99 345.96 241.21 345.96 220.59 287.63 174.99 333.24 174.99 345.96"/><polygon class="cls-7" points="174.99 333.24 220.59 287.63 215.51 273.24 174.99 313.76 174.99 333.24"/><polygon class="cls-9" points="187.54 194.12 174.99 158.61 174.99 206.67 187.54 194.12"/><polygon class="cls-9" points="174.99 259.85 201.43 233.41 192.63 208.51 174.99 226.15 174.99 259.85"/><polygon class="cls-7" points="174.99 226.15 192.63 208.51 187.54 194.12 174.99 206.67 174.99 226.15"/><rect class="cls-15" x="105.61" y="365.35" width="69.38" height="245.11"/><rect class="cls-16" x="174.99" y="365.35" width="69.38" height="245.11"/><path class="cls-15" d="M152,383.15H141.57v19.39H152V383.15Z" transform="translate(-51.74 -56.58)"/><path class="cls-16" d="M162.5,383.15H152v19.39H162.5Z" transform="translate(-51.74 -56.58)"/><path class="cls-15" d="M301.42,383.15H291v19.39h10.47V383.15Z" transform="translate(-51.74 -56.58)"/><path class="cls-16" d="M311.88,383.15H301.42v19.39h10.47Z" transform="translate(-51.74 -56.58)"/><path class="cls-15" d="M226.73,383.15H216.26v19.39h10.47V383.15Z" transform="translate(-51.74 -56.58)"/><path class="cls-16" d="M237.19,383.15H226.73v19.39h10.47Z" transform="translate(-51.74 -56.58)"/><path class="cls-15" d="M192,383.15H181.57v19.39H192V383.15Z" transform="translate(-51.74 -56.58)"/><path class="cls-16" d="M202.5,383.15H192v19.39H202.5Z" transform="translate(-51.74 -56.58)"/><path class="cls-15" d="M261.41,383.15H250.95v19.39h10.47V383.15Z" transform="translate(-51.74 -56.58)"/><path class="cls-16" d="M271.88,383.15H261.41v19.39h10.47Z" transform="translate(-51.74 -56.58)"/><rect class="cls-16" x="174.99" y="345.96" width="85.16" height="19.39"/><rect class="cls-15" x="89.83" y="345.96" width="85.16" height="19.39"/><path class="cls-17" d="M193.19,600V667h33.54V566.42A33.54,33.54,0,0,0,193.19,600Z" transform="translate(-51.74 -56.58)"/><path class="cls-18" d="M260.26,600a33.54,33.54,0,0,0-33.54-33.53h0V667h33.54Z" transform="translate(-51.74 -56.58)"/><path class="cls-6" d="M220.92,627.71a5.81,5.81,0,0,0,5.81,5.81V621.9A5.81,5.81,0,0,0,220.92,627.71Z" transform="translate(-51.74 -56.58)"/><path class="cls-5" d="M226.73,621.9v11.62a5.81,5.81,0,0,0,0-11.62Z" transform="translate(-51.74 -56.58)"/><path class="cls-19" d="M213.54,472.39v26.37h13.18V459.22A13.18,13.18,0,0,0,213.54,472.39Z" transform="translate(-51.74 -56.58)"/><path class="cls-20" d="M239.91,472.39a13.18,13.18,0,0,0-13.18-13.18h0v39.55h13.18Z" transform="translate(-51.74 -56.58)"/><polygon class="cls-8" points="0.39 472.57 86.06 472.57 86.06 437.8 0.39 437.8 17.52 455.19 0.39 472.57"/><path class="cls-6" d="M133.1,498.24h-4.45v-1.48h4.45Zm-8.9,0h-4.45v-1.48h4.45Zm-8.9,0h-4.45v-1.48h4.45Zm-8.9,0h-4.45v-1.48h4.45Zm-8.9,0H93v-1.48h4.45Zm-8.9,0H84.13v-1.48h4.45Zm-8.9,0H75.23v-1.48h4.45Zm-8.9,0H66.33v-1.48h4.45Zm-8.9,0H57.43v-1.48h4.45Z" transform="translate(-51.74 -56.58)"/><polygon class="cls-9" points="86.06 437.8 56.33 452.92 86.06 452.92 86.06 437.8"/><polygon class="cls-8" points="345.07 472.57 259.4 472.57 259.4 437.8 345.07 437.8 327.94 455.19 345.07 472.57"/><path class="cls-6" d="M392.22,498.24h-4.45v-1.48h4.45Zm-8.9,0h-4.45v-1.48h4.45Zm-8.9,0H370v-1.48h4.45Zm-8.9,0h-4.45v-1.48h4.45Zm-8.9,0h-4.45v-1.48h4.45Zm-8.9,0h-4.45v-1.48h4.45Zm-8.9,0h-4.45v-1.48h4.45Zm-8.9,0h-4.45v-1.48h4.45Zm-8.9,0h-4.45v-1.48H321Z" transform="translate(-51.74 -56.58)"/><path class="cls-6" d="M392,526.55h-4.45v-1.48H392Zm-8.9,0h-4.45v-1.48h4.45Zm-8.9,0h-4.45v-1.48h4.45Zm-8.9,0h-4.45v-1.48h4.45Zm-8.9,0H352v-1.48h4.45Zm-8.9,0h-4.45v-1.48h4.45Zm-8.9,0h-4.45v-1.48h4.45Zm-8.9,0h-4.45v-1.48h4.45Zm-8.9,0h-4.45v-1.48h4.45Z" transform="translate(-51.74 -56.58)"/><path class="cls-6" d="M133.53,526.14h-4.45v-1.48h4.45Zm-8.9,0h-4.45v-1.48h4.45Zm-8.9,0h-4.45v-1.48h4.45Zm-8.9,0h-4.45v-1.48h4.45Zm-8.9,0H93.47v-1.48h4.45Zm-8.9,0H84.56v-1.48H89Zm-8.9,0H75.66v-1.48h4.45Zm-8.9,0H66.76v-1.48h4.45Zm-8.9,0H57.85v-1.48h4.45Z" transform="translate(-51.74 -56.58)"/><polygon class="cls-9" points="259.4 437.8 289.13 452.92 259.4 452.92 259.4 437.8"/><rect class="cls-8" x="108.07" y="509.5" width="232.81" height="39.3" transform="translate(397.2 1001.72) rotate(-180)"/><path class="cls-6" d="M341,513.1h-4.45v-1.48H341Zm-8.9,0h-4.45v-1.48h4.45Zm-8.9,0h-4.45v-1.48h4.45Zm-8.9,0h-4.45v-1.48h4.45Zm-8.9,0h-4.45v-1.48h4.45Zm-8.9,0H292v-1.48h4.45Zm-8.9,0h-4.45v-1.48h4.45Zm-8.9,0h-4.45v-1.48h4.45Zm-8.9,0H265.3v-1.48h4.45Zm-8.9,0H256.4v-1.48h4.45Zm-8.9,0H247.5v-1.48h4.45Zm-8.9,0h-4.45v-1.48H243Zm-8.9,0h-4.45v-1.48h4.45Zm-8.9,0h-4.45v-1.48h4.45Zm-8.9,0h-4.45v-1.48h4.45Zm-8.9,0H203v-1.48h4.45Zm-8.9,0h-4.45v-1.48h4.45Zm-8.9,0h-4.45v-1.48h4.45Zm-8.9,0h-4.45v-1.48h4.45Zm-8.9,0h-4.45v-1.48h4.45Zm-8.9,0h-4.45v-1.48h4.45Zm-8.9,0h-4.45v-1.48H154Zm-8.9,0h-4.45v-1.48h4.45Zm-8.9,0h-4.45v-1.48h4.45Zm-8.9,0h-4.45v-1.48h4.45Zm-8.9,0H114v-1.48h4.45Zm-8.9,0h-1.33v-1.48h1.33Z" transform="translate(-51.74 -56.58)"/><path class="cls-6" d="M341,545.47h-4.45V544H341Zm-8.9,0h-4.45V544h4.45Zm-8.9,0h-4.45V544h4.45Zm-8.9,0h-4.45V544h4.45Zm-8.9,0h-4.45V544h4.45Zm-8.9,0H292V544h4.45Zm-8.9,0h-4.45V544h4.45Zm-8.9,0h-4.45V544h4.45Zm-8.9,0H265.3V544h4.45Zm-8.9,0H256.4V544h4.45Zm-8.9,0H247.5V544h4.45Zm-8.9,0h-4.45V544H243Zm-8.9,0h-4.45V544h4.45Zm-8.9,0h-4.45V544h4.45Zm-8.9,0h-4.45V544h4.45Zm-8.9,0H203V544h4.45Zm-8.9,0h-4.45V544h4.45Zm-8.9,0h-4.45V544h4.45Zm-8.9,0h-4.45V544h4.45Zm-8.9,0h-4.45V544h4.45Zm-8.9,0h-4.45V544h4.45Zm-8.9,0h-4.45V544H154Zm-8.9,0h-4.45V544h4.45Zm-8.9,0h-4.45V544h4.45Zm-8.9,0h-4.45V544h4.45Zm-8.9,0H114V544h4.45Zm-8.9,0h-1.33V544h1.33Z" transform="translate(-51.74 -56.58)"/><path class="cls-21" d="M139.46,534.43a6.89,6.89,0,0,0,4.4-1.28,1.26,1.26,0,0,0,.33-.78v-2c0-.2-.11-.28-.31-.28-.61,0-1,.06-1.39.06s-.83-1.62-.83-2.56c0-.25.14-.39.47-.39h4.26a.72.72,0,0,1,.78.81v5.37a1.61,1.61,0,0,1-.58,1.45,10.69,10.69,0,0,1-7.38,2.37c-5.26,0-10.33-3.17-10.33-8.79,0-5.18,4.51-10,11.33-10a11.08,11.08,0,0,1,4.82,1.09c.64.33,1,.67,1,1a17.45,17.45,0,0,1-.22,2.92.64.64,0,0,1-.53.47,1.09,1.09,0,0,1-.92-.56,5.09,5.09,0,0,0-4-2c-4.54,0-7.71,3-7.71,7.13C132.64,531.84,135.14,534.43,139.46,534.43Z" transform="translate(-51.74 -56.58)"/><path class="cls-21" d="M155.74,534.82a4.67,4.67,0,0,0,3.09-1.5c.17-.14.22-.2.36-.2.33,0,1.36,1.25,1.36,1.64,0,.22-.11.33-.45.64a6.13,6.13,0,0,1-4.54,1.81c-3.48,0-6.29-1.75-6.29-5.43a5.93,5.93,0,0,1,6.15-6.26c3.62,0,4.73,2.67,4.73,5.15,0,.86-.39,1.2-1.17,1.2h-6.1c-.2,0-.25.06-.25.25C152.65,533.62,153.59,534.82,155.74,534.82Zm-2.64-5.48a.91.91,0,0,0-.11.28.16.16,0,0,0,.17.17h3.79c.2,0,.25-.08.25-.25a2,2,0,0,0-1.81-1.67A2.69,2.69,0,0,0,153.09,529.34Z" transform="translate(-51.74 -56.58)"/><path class="cls-21" d="M165.73,536.29a.59.59,0,0,1-.67.64h-2.14a.59.59,0,0,1-.67-.64c0-.47.28-4.65.28-9.38s-.28-8.91-.28-9.38a.59.59,0,0,1,.67-.64h2.14a.59.59,0,0,1,.67.64c0,.47-.28,4.68-.28,9.38S165.73,535.82,165.73,536.29Z" transform="translate(-51.74 -56.58)"/><path class="cls-21" d="M176.33,535.79a.59.59,0,0,0-.25.14,5.71,5.71,0,0,1-3.45,1.28c-2.45,0-4.2-1.14-4.2-4.29,0-4-.19-6.15-.19-6.49a.59.59,0,0,1,.67-.64h2.17a.59.59,0,0,1,.67.64c0,.33-.2,2.48-.2,5.43,0,1.75.45,2.81,1.62,2.81,2.09,0,3-2.39,3-4.2,0-2.14-.08-3.56-.08-4a.59.59,0,0,1,.67-.64h2.17a.59.59,0,0,1,.67.64c0,.47-.22,1.92-.22,4.23a30.1,30.1,0,0,0,.39,5.93.3.3,0,0,1-.31.33h-2.37a.42.42,0,0,1-.47-.31,3.36,3.36,0,0,1-.14-.64C176.45,535.82,176.39,535.79,176.33,535.79Z" transform="translate(-51.74 -56.58)"/><path class="cls-21" d="M185.35,528.2a.23.23,0,0,0,.22.25.68.68,0,0,0,.25-.11l3-2.31a1.12,1.12,0,0,1,.81-.33h3.23c.19,0,.33.25.33.39s-.11.31-.33.47c-1.5,1-3.76,2.76-5.23,3.87-.11.08-.2.17-.2.28s0,.14.14.25a43.09,43.09,0,0,0,5.87,5c.5.31.75.42.75.67a.39.39,0,0,1-.39.36H190c-.31,0-.5-.17-.86-.53-2.14-2-2.64-2.48-3.42-3.15a.3.3,0,0,0-.19-.08c-.11,0-.19.08-.19.28a17,17,0,0,0,.19,2.84.59.59,0,0,1-.67.64h-2.23a.59.59,0,0,1-.67-.64c0-.47.28-4.37.28-9.1S182,518,182,517.54a.59.59,0,0,1,.67-.64h2.23a.59.59,0,0,1,.67.64c0,.47-.28,5-.28,9.66Z" transform="translate(-51.74 -56.58)"/><path class="cls-21" d="M200.38,537.21c-3.37,0-5.12-1.95-5.12-2.56s1.39-1.87,1.78-1.87c.64,0,1.53,2.06,3.62,2.06a1.14,1.14,0,0,0,1.22-1.09c0-2-5.9-1.09-5.9-4.87,0-2.25,2.39-3.37,4.93-3.37,2.17,0,3.84.92,3.84,1.59s-1.14,1.92-1.59,1.92-1.45-1.2-2.89-1.2a.89.89,0,0,0-1,.83c0,1.73,6,1.06,6,5C205.23,535.63,203.25,537.21,200.38,537.21Z" transform="translate(-51.74 -56.58)"/><path class="cls-21" d="M217.47,527.33c.06,0,.11-.05.2-.14a4.65,4.65,0,0,1,3.73-1.67c2.37,0,4.06,1.14,4.06,4.29,0,4,.19,6.15.19,6.49a.59.59,0,0,1-.67.64h-2.17a.59.59,0,0,1-.67-.64c0-.33.2-2.48.2-5.43,0-2.34-.58-2.73-1.45-2.73-1.53,0-2.81,1.56-2.81,4.12,0,2.09.08,3.7.08,4a.59.59,0,0,1-.67.64h-2.14a.59.59,0,0,1-.67-.64c0-.33.2-2.48.2-5.43,0-2.23-.64-2.73-1.5-2.73-1.39,0-2.67,1.56-2.67,4.12,0,2.09.17,3.7.17,4a.59.59,0,0,1-.67.64H208a.59.59,0,0,1-.67-.64c0-.47.25-1.92.25-4.23a28.18,28.18,0,0,0-.42-5.93.3.3,0,0,1,.31-.33h2.37c.17,0,.42,0,.47.31s.05.47.11.7.05.14.11.14.08-.06.17-.14a4.55,4.55,0,0,1,3.17-1.28,3.56,3.56,0,0,1,3.45,1.7C217.39,527.3,217.42,527.33,217.47,527.33Z" transform="translate(-51.74 -56.58)"/><path class="cls-21" d="M233.14,525.52a5.85,5.85,0,1,1-6.07,5.84A6,6,0,0,1,233.14,525.52Zm0,9a3,3,0,0,0,3-3.2,3,3,0,1,0-6,0A3,3,0,0,0,233.14,534.57Z" transform="translate(-51.74 -56.58)"/><path class="cls-21" d="M251.18,527.33c.06,0,.11-.05.19-.14a4.66,4.66,0,0,1,3.73-1.67c2.37,0,4.06,1.14,4.06,4.29,0,4,.2,6.15.2,6.49a.59.59,0,0,1-.67.64h-2.17a.59.59,0,0,1-.67-.64c0-.33.19-2.48.19-5.43,0-2.34-.58-2.73-1.45-2.73-1.53,0-2.81,1.56-2.81,4.12,0,2.09.08,3.7.08,4a.59.59,0,0,1-.67.64h-2.14a.59.59,0,0,1-.67-.64c0-.33.19-2.48.19-5.43,0-2.23-.64-2.73-1.5-2.73-1.39,0-2.67,1.56-2.67,4.12,0,2.09.17,3.7.17,4a.59.59,0,0,1-.67.64h-2.2a.59.59,0,0,1-.67-.64c0-.47.25-1.92.25-4.23a28.12,28.12,0,0,0-.42-5.93.3.3,0,0,1,.31-.33h2.37c.17,0,.42,0,.47.31s.06.47.11.7.06.14.11.14.08-.06.17-.14a4.55,4.55,0,0,1,3.17-1.28,3.55,3.55,0,0,1,3.45,1.7C251.1,527.3,251.12,527.33,251.18,527.33Z" transform="translate(-51.74 -56.58)"/><path class="cls-21" d="M268,534.82a4.67,4.67,0,0,0,3.09-1.5c.17-.14.22-.2.36-.2.33,0,1.36,1.25,1.36,1.64,0,.22-.11.33-.45.64a6.13,6.13,0,0,1-4.54,1.81c-3.48,0-6.29-1.75-6.29-5.43a5.93,5.93,0,0,1,6.15-6.26c3.62,0,4.73,2.67,4.73,5.15,0,.86-.39,1.2-1.17,1.2h-6.1c-.2,0-.25.06-.25.25C265,533.62,265.9,534.82,268,534.82Zm-2.64-5.48a.91.91,0,0,0-.11.28.16.16,0,0,0,.17.17h3.79c.2,0,.25-.08.25-.25a2,2,0,0,0-1.81-1.67A2.69,2.69,0,0,0,265.4,529.34Z" transform="translate(-51.74 -56.58)"/><path class="cls-21" d="M277.82,532.26c0,2.09.17,3.7.17,4a.59.59,0,0,1-.67.64h-2.2a.59.59,0,0,1-.67-.64c0-.47.25-1.92.25-4.23a28.12,28.12,0,0,0-.42-5.93.3.3,0,0,1,.31-.33H277c.17,0,.42,0,.47.31s.17.53.22.75.06.14.11.14.08-.05.17-.14a5.51,5.51,0,0,1,3.51-1.34c2.42,0,4.34,1.22,4.34,4.29,0,4,.2,6.15.2,6.49a.59.59,0,0,1-.67.64h-2.17a.59.59,0,0,1-.67-.64c0-.33.19-2.48.19-5.43,0-2.39-.75-2.73-1.72-2.73C279.54,528.14,277.82,529.7,277.82,532.26Z" transform="translate(-51.74 -56.58)"/><path class="cls-21" d="M287.36,527.89c0-.61,0-2.34.47-2.34l.81.06c0-1.95,0-3.17,0-3.42,0-.5,1.95-1.67,2.78-1.67.47,0,.53.25.53.42,0,.53-.14,2.12-.22,4.76,1.53,0,2.92-.14,3.09-.14s.36.08.36.31c0,.81-.58,2.34-1,2.34-.11,0-1.2-.11-2.5-.14,0,1.25,0,2.67,0,4.23s.28,2.28,1.25,2.28c1.34,0,1.5-1.64,2-1.64a2.45,2.45,0,0,1,1.47,1.61,4.24,4.24,0,0,1-3.76,2.67c-2.67,0-4-1.81-4-4.7v-4.37l-1,.06A.27.27,0,0,1,287.36,527.89Z" transform="translate(-51.74 -56.58)"/><path class="cls-21" d="M304,534.82a4.67,4.67,0,0,0,3.09-1.5c.17-.14.22-.2.36-.2.33,0,1.36,1.25,1.36,1.64,0,.22-.11.33-.45.64a6.13,6.13,0,0,1-4.54,1.81c-3.48,0-6.29-1.75-6.29-5.43a5.93,5.93,0,0,1,6.15-6.26c3.62,0,4.73,2.67,4.73,5.15,0,.86-.39,1.2-1.17,1.2h-6.1c-.2,0-.25.06-.25.25C300.89,533.62,301.84,534.82,304,534.82Zm-2.64-5.48a.91.91,0,0,0-.11.28.16.16,0,0,0,.17.17h3.79c.2,0,.25-.08.25-.25a2,2,0,0,0-1.81-1.67A2.69,2.69,0,0,0,301.34,529.34Z" transform="translate(-51.74 -56.58)"/><path class="cls-21" d="M313.75,532.26c0,2.09.17,3.7.17,4a.59.59,0,0,1-.67.64H311a.59.59,0,0,1-.67-.64c0-.47.25-1.92.25-4.23a28.18,28.18,0,0,0-.42-5.93.3.3,0,0,1,.31-.33h2.37c.17,0,.42,0,.47.31s.17.53.22.75.05.14.11.14.08-.05.17-.14a5.52,5.52,0,0,1,3.51-1.34c2.42,0,4.34,1.22,4.34,4.29,0,4,.19,6.15.19,6.49a.59.59,0,0,1-.67.64h-2.17a.59.59,0,0,1-.67-.64c0-.33.2-2.48.2-5.43,0-2.39-.75-2.73-1.73-2.73C315.47,528.14,313.75,529.7,313.75,532.26Z" transform="translate(-51.74 -56.58)"/><path class="cls-22" d="M364.28,89.11h-3.13q0-1.83-.23-6.16t-.24-5.41h-.16q-.11.64-.57,2.38t-1.73,5.13A20,20,0,0,0,357,89.11h-2.37A20.53,20.53,0,0,0,353.36,85q-1.22-3.41-1.6-4.77a26.93,26.93,0,0,1-.6-2.71H351q0,1.34-.26,5.76t-.25,5.81h-2.84q0-.32.78-6.46t.78-7.53h4.16a23.74,23.74,0,0,0,1.32,5.31A24.07,24.07,0,0,1,356,85.68h.16a21.61,21.61,0,0,1,1.5-5.26,21.43,21.43,0,0,0,1.5-5.3h4.13q0,2.22.5,7.93T364.28,89.11Z" transform="translate(-51.74 -56.58)"/><path class="cls-22" d="M369.84,89.11h-2.89q.15-2.22.15-5.1a30.24,30.24,0,0,0-.37-5l3.09-.31q-.14,2.08-.14,5.32Q369.69,86.76,369.84,89.11Zm.49-13.45a1.84,1.84,0,0,1-.5,1.28,1.79,1.79,0,0,1-1.39.55,1.5,1.5,0,0,1-1.18-.47,1.64,1.64,0,0,1-.42-1.14,1.8,1.8,0,0,1,.5-1.27,1.82,1.82,0,0,1,1.4-.54,1.49,1.49,0,0,1,1.18.47A1.64,1.64,0,0,1,370.33,75.66Z" transform="translate(-51.74 -56.58)"/><path class="cls-22" d="M382,89.11h-2.86q.24-2.72.24-5.5a3.75,3.75,0,0,0-.5-2.29,1.86,1.86,0,0,0-1.52-.6,3.76,3.76,0,0,0-2.32.84q.05,4.19.05,7.55h-2.89q.19-3.36.19-5.29a21.49,21.49,0,0,0-.53-4.84l2.75-.3.18,1.14h.17a5,5,0,0,1,3.38-1.27,4.18,4.18,0,0,1,2.65.78,3.48,3.48,0,0,1,1,2.87q0,.31,0,.83t0,1.07Q381.92,85.55,382,89.11Z" transform="translate(-51.74 -56.58)"/><path class="cls-22" d="M387.41,89.11h-2.89q.15-2.22.15-5.1a30.24,30.24,0,0,0-.37-5l3.09-.31q-.14,2.08-.14,5.32Q387.26,86.76,387.41,89.11Zm.49-13.45a1.84,1.84,0,0,1-.5,1.28,1.79,1.79,0,0,1-1.39.55,1.5,1.5,0,0,1-1.18-.47,1.64,1.64,0,0,1-.42-1.14,1.8,1.8,0,0,1,.5-1.27,1.82,1.82,0,0,1,1.4-.54,1.49,1.49,0,0,1,1.18.47A1.64,1.64,0,0,1,387.9,75.66Z" transform="translate(-51.74 -56.58)"/><path class="cls-22" d="M397.14,86.17q0,3.22-4.77,3.22a11,11,0,0,1-3-.38l.37-2.12a7.86,7.86,0,0,0,2.67.48,5.08,5.08,0,0,0,1.79-.21.74.74,0,0,0,.5-.72q0-.78-1.8-1.49a8.64,8.64,0,0,1-2.3-1.22,2.59,2.59,0,0,1-1-2.05,2.82,2.82,0,0,1,1.06-2.3,4.78,4.78,0,0,1,3.09-.87,10.6,10.6,0,0,1,3,.33L396.35,81a7.16,7.16,0,0,0-2.62-.47q-1.72,0-1.72.88a.86.86,0,0,0,.37.73,6.79,6.79,0,0,0,1.49.69A7.69,7.69,0,0,1,396.13,84,2.76,2.76,0,0,1,397.14,86.17Z" transform="translate(-51.74 -56.58)"/><path class="cls-22" d="M405.44,87.1,405.25,89a4.82,4.82,0,0,1-1.89.32,3.41,3.41,0,0,1-2.62-.95q-.88-.94-.88-3.64,0-1.62,0-3.67-.55,0-1.48.06l.08-2.12q.83.06,1.54.06,0-.57.09-3l2.55-.31q-.16,2.14-.16,3.31.9,0,2.7-.09l-.09,2.14q-1.63-.06-2.65-.06,0,1.43,0,3a5.65,5.65,0,0,0,.39,2.56,1.45,1.45,0,0,0,1.36.65A4.87,4.87,0,0,0,405.44,87.1Z" transform="translate(-51.74 -56.58)"/><path class="cls-22" d="M416.38,82.91q0,.55-.06,1.43l-6.92.12a3.16,3.16,0,0,0,1,2,3.36,3.36,0,0,0,2.34.81,13.34,13.34,0,0,0,3.43-.48L416,88.88a10.88,10.88,0,0,1-3.67.54,5.57,5.57,0,0,1-4.25-1.56,5.25,5.25,0,0,1-1.48-3.75,6,6,0,0,1,1.4-4,4.79,4.79,0,0,1,3.89-1.68,4.32,4.32,0,0,1,3.38,1.24A4.63,4.63,0,0,1,416.38,82.91Zm-2.51-.1q0-2.47-2.11-2.47t-2.38,2.56Z" transform="translate(-51.74 -56.58)"/><path class="cls-22" d="M425.41,78.9l-.62,2.51a4.26,4.26,0,0,0-1.61-.32,2,2,0,0,0-2.08,1.42q0,4.29.06,6.6h-2.86q.18-3.23.18-5.29a21.13,21.13,0,0,0-.54-4.84l2.74-.3q.18,1.18.18,1.39H421a3,3,0,0,1,2.63-1.51A5.12,5.12,0,0,1,425.41,78.9Z" transform="translate(-51.74 -56.58)"/><path class="cls-22" d="M429.84,89.11H427q.15-2.22.15-5.1a30.24,30.24,0,0,0-.37-5l3.09-.31q-.14,2.08-.14,5.32Q429.69,86.76,429.84,89.11Zm.49-13.45a1.84,1.84,0,0,1-.5,1.28,1.79,1.79,0,0,1-1.39.55,1.5,1.5,0,0,1-1.18-.47,1.64,1.64,0,0,1-.42-1.14,1.8,1.8,0,0,1,.5-1.27,1.82,1.82,0,0,1,1.4-.54,1.49,1.49,0,0,1,1.18.47A1.64,1.64,0,0,1,430.34,75.66Z" transform="translate(-51.74 -56.58)"/><path class="cls-22" d="M441.6,82.91q0,.55-.06,1.43l-6.92.12a3.16,3.16,0,0,0,1,2,3.36,3.36,0,0,0,2.34.81,13.34,13.34,0,0,0,3.43-.48l-.21,2.08a10.88,10.88,0,0,1-3.67.54,5.57,5.57,0,0,1-4.25-1.56,5.25,5.25,0,0,1-1.48-3.75,6,6,0,0,1,1.4-4,4.79,4.79,0,0,1,3.89-1.68,4.32,4.32,0,0,1,3.38,1.24A4.63,4.63,0,0,1,441.6,82.91Zm-2.51-.1q0-2.47-2.11-2.47T434.6,82.9Z" transform="translate(-51.74 -56.58)"/><path class="cls-22" d="M457.21,78.9A30.55,30.55,0,0,1,455,84a28.78,28.78,0,0,0-2.18,5.13h-1.44a26.23,26.23,0,0,0-1.92-5.26,36.38,36.38,0,0,1-1.92-4.95h2.08a24,24,0,0,0,1.4,4.09,24,24,0,0,1,1.4,4.09h.1a23.38,23.38,0,0,1,1.33-3.94,18.66,18.66,0,0,0,1.33-4.24Z" transform="translate(-51.74 -56.58)"/><path class="cls-22" d="M467.17,89.11l-1.69.06a4.2,4.2,0,0,1-.13-1h-.11a5.14,5.14,0,0,1-3.6,1.2,3.27,3.27,0,0,1-2.13-.73,2.51,2.51,0,0,1-.89-2.07,3.12,3.12,0,0,1,1.4-2.66q1.4-1,5.19-1.06a4.81,4.81,0,0,0,0-.59,1.92,1.92,0,0,0-.7-1.76,4.1,4.1,0,0,0-2.13-.44,13.31,13.31,0,0,0-3.32.42l.18-1.48a13.49,13.49,0,0,1,3.71-.46,4.81,4.81,0,0,1,3,.79A3.17,3.17,0,0,1,467,82q0,.51,0,1.83t0,1.77A18.75,18.75,0,0,0,467.17,89.11ZM465.27,87q-.05-1.63-.05-2.93a11.9,11.9,0,0,0-3.07.3,2.09,2.09,0,0,0-1.76,2.05q0,1.46,2.06,1.46A4.26,4.26,0,0,0,465.27,87Z" transform="translate(-51.74 -56.58)"/><path class="cls-22" d="M479,89.11h-2q.24-2.82.24-6.17a3,3,0,0,0-.67-2.26,2.77,2.77,0,0,0-1.92-.61,4.23,4.23,0,0,0-2.81,1.11q0,3.66,0,7.93h-2q.18-3.65.18-5.29a24.79,24.79,0,0,0-.47-4.88l1.89-.27.2,1.31h.09a5,5,0,0,1,3.41-1.44,4.29,4.29,0,0,1,2.76.79,3.44,3.44,0,0,1,1,2.81q0,.2,0,.81t0,.81Q479,85.55,479,89.11Z" transform="translate(-51.74 -56.58)"/><path class="cls-22" d="M497.78,88.74a17.84,17.84,0,0,1-4.28.66,7.33,7.33,0,0,1-5.6-2A6.91,6.91,0,0,1,486,82.46a7.4,7.4,0,0,1,7.84-7.53,13.38,13.38,0,0,1,3.05.31l-.35,2.54a12.13,12.13,0,0,0-3-.44,4.08,4.08,0,0,0-3.38,1.39,5.26,5.26,0,0,0-1.12,3.4,5.46,5.46,0,0,0,1.25,3.58,4.22,4.22,0,0,0,3.45,1.53,9.11,9.11,0,0,0,1.42-.13,17.47,17.47,0,0,1-.16-2.34,17.15,17.15,0,0,0-.23-2.61h3q-.09,1.65-.09,3.33Q497.69,86.69,497.78,88.74Z" transform="translate(-51.74 -56.58)"/><path class="cls-22" d="M509.37,82.91q0,.55-.06,1.43l-6.92.12a3.16,3.16,0,0,0,1,2,3.36,3.36,0,0,0,2.34.81,13.34,13.34,0,0,0,3.43-.48L509,88.88a10.88,10.88,0,0,1-3.67.54,5.57,5.57,0,0,1-4.25-1.56,5.25,5.25,0,0,1-1.48-3.75,6,6,0,0,1,1.4-4,4.79,4.79,0,0,1,3.89-1.68,4.32,4.32,0,0,1,3.38,1.24A4.63,4.63,0,0,1,509.37,82.91Zm-2.51-.1q0-2.47-2.11-2.47t-2.38,2.56Z" transform="translate(-51.74 -56.58)"/><path class="cls-22" d="M514.51,89.11h-2.93q.16-3.68.16-8a64.59,64.59,0,0,0-.33-7.12l3.1-.17q-.16,3-.16,7.29T514.51,89.11Z" transform="translate(-51.74 -56.58)"/><path class="cls-22" d="M526.58,89.1l-2.51.09a3.47,3.47,0,0,1-.17-.92h-.17a5,5,0,0,1-3.29,1.16,3.55,3.55,0,0,1-2.67-.93q-.9-.93-.9-3.71,0-.33,0-.93t0-1.05q0-1.19-.2-3.8l3-.11q-.17,2.06-.17,3.91a10.46,10.46,0,0,0,.39,3.54,1.51,1.51,0,0,0,1.54.91,3.85,3.85,0,0,0,2.17-.6q0-5.65-.13-7.67l2.9-.1q-.11,2-.11,5.26A43.94,43.94,0,0,0,526.58,89.1Z" transform="translate(-51.74 -56.58)"/><path class="cls-22" d="M538.72,89.11h-3.29a10.24,10.24,0,0,0-1.63-2.69q-1.63-2.29-2.08-2.29h-.14q0,2.2.13,5h-2.85q.13-5,.13-8a66.08,66.08,0,0,0-.33-7.12l3.05-.17q-.15,4.08-.15,7.29,0,.41,0,1.59h.15q.3,0,1.71-1.73a7,7,0,0,0,1.41-2.08H538q0,.33-1.46,1.86a14.6,14.6,0,0,1-2.36,2.11V83A14.27,14.27,0,0,1,537,86.2,11.05,11.05,0,0,1,538.72,89.11Z" transform="translate(-51.74 -56.58)"/><path class="cls-22" d="M543.49,87.43q0,2.8-3.44,6l-1-.82a5.16,5.16,0,0,0,1.46-3.51,1.73,1.73,0,0,1-.82-1.6,1.91,1.91,0,0,1,.55-1.35,2,2,0,0,1,1.51-.58,1.48,1.48,0,0,1,1.24.58A2.11,2.11,0,0,1,543.49,87.43Z" transform="translate(-51.74 -56.58)"/><path class="cls-22" d="M366.63,101.52q0,1-2.15,7.09a46,46,0,0,0-2.15,6.9H359.5a24.57,24.57,0,0,0-1.3-4.78,39.16,39.16,0,0,1-1.56-5.55h-.18a45.5,45.5,0,0,1-1.44,5.6,28,28,0,0,0-1.18,4.74h-2.9q0-1-2.12-7.19a56.58,56.58,0,0,1-2.12-6.8h3.41a43.65,43.65,0,0,0,1.22,5.39,38.32,38.32,0,0,1,1.22,5.6h.17A34.34,34.34,0,0,1,354,107a34.31,34.31,0,0,0,1.31-5.49h3.06a38.93,38.93,0,0,0,1.31,5.59,45.13,45.13,0,0,1,1.31,5.4h.17a37,37,0,0,1,1.19-5.25,30.94,30.94,0,0,0,1.19-5.74Z" transform="translate(-51.74 -56.58)"/><path class="cls-22" d="M376.65,109.31q0,.55-.06,1.43l-6.92.12a3.16,3.16,0,0,0,1,2,3.36,3.36,0,0,0,2.34.81,13.34,13.34,0,0,0,3.43-.48l-.21,2.08a10.88,10.88,0,0,1-3.67.54,5.57,5.57,0,0,1-4.25-1.56,5.25,5.25,0,0,1-1.48-3.75,6,6,0,0,1,1.4-4,4.79,4.79,0,0,1,3.89-1.68,4.32,4.32,0,0,1,3.38,1.24A4.63,4.63,0,0,1,376.65,109.31Zm-2.51-.1q0-2.47-2.11-2.47t-2.38,2.56Z" transform="translate(-51.74 -56.58)"/><path class="cls-22" d="M381.79,115.51h-2.93q.16-3.68.16-8a64.59,64.59,0,0,0-.33-7.12l3.1-.17q-.16,3-.16,7.29T381.79,115.51Z" transform="translate(-51.74 -56.58)"/><path class="cls-22" d="M394.52,110a6.6,6.6,0,0,1-1.33,4.09,4.34,4.34,0,0,1-3.66,1.76,3.3,3.3,0,0,1-2.43-.73H387l-.21.42h-2.52q.14-3.77.14-8a64.37,64.37,0,0,0-.35-7.12l3.08-.17q-.11,2.5-.11,5.66h.13a4.28,4.28,0,0,1,2.93-1,4,4,0,0,1,3.27,1.49A5.44,5.44,0,0,1,394.52,110Zm-2.86.28a4,4,0,0,0-.68-2.33,2.16,2.16,0,0,0-1.87-1,2.6,2.6,0,0,0-2.17.87q0,3.67.16,5.53a2.77,2.77,0,0,0,1.75.53A2.36,2.36,0,0,0,391,112.8,4.57,4.57,0,0,0,391.66,110.24Z" transform="translate(-51.74 -56.58)"/><path class="cls-22" d="M405.79,109.31q0,.55-.06,1.43l-6.92.12a3.16,3.16,0,0,0,1,2,3.36,3.36,0,0,0,2.34.81,13.34,13.34,0,0,0,3.43-.48l-.21,2.08a10.88,10.88,0,0,1-3.67.54,5.57,5.57,0,0,1-4.25-1.56,5.25,5.25,0,0,1-1.48-3.75,6,6,0,0,1,1.4-4,4.79,4.79,0,0,1,3.89-1.68,4.32,4.32,0,0,1,3.38,1.24A4.63,4.63,0,0,1,405.79,109.31Zm-2.51-.1q0-2.47-2.11-2.47t-2.38,2.56Z" transform="translate(-51.74 -56.58)"/><path class="cls-22" d="M417,105.3a28.65,28.65,0,0,1-1.92,5.1,28.66,28.66,0,0,0-1.92,5.1h-2.93a30.33,30.33,0,0,0-1.71-5.23,39.9,39.9,0,0,1-1.71-5H410A24.4,24.4,0,0,0,411,109a22.51,22.51,0,0,1,1.06,3.82h.14a22,22,0,0,1,1-3.61,18,18,0,0,0,1-3.94Z" transform="translate(-51.74 -56.58)"/><path class="cls-22" d="M421.54,115.51h-2.89q.15-2.22.15-5.1a30.24,30.24,0,0,0-.37-5l3.09-.31q-.14,2.08-.14,5.32Q421.39,113.16,421.54,115.51Zm.49-13.45a1.84,1.84,0,0,1-.5,1.28,1.79,1.79,0,0,1-1.39.55,1.5,1.5,0,0,1-1.18-.47,1.64,1.64,0,0,1-.42-1.14A1.8,1.8,0,0,1,419,101a1.82,1.82,0,0,1,1.4-.54,1.49,1.49,0,0,1,1.18.47A1.64,1.64,0,0,1,422,102.06Z" transform="translate(-51.74 -56.58)"/><path class="cls-22" d="M433.68,115.51h-2.86q.24-2.72.24-5.5a3.75,3.75,0,0,0-.5-2.29,1.86,1.86,0,0,0-1.52-.6,3.76,3.76,0,0,0-2.32.84q.05,4.19.05,7.55h-2.89q.19-3.36.19-5.29a21.49,21.49,0,0,0-.53-4.84l2.75-.3.18,1.14h.17a5,5,0,0,1,3.38-1.27,4.18,4.18,0,0,1,2.65.78,3.48,3.48,0,0,1,1,2.87q0,.31,0,.83t0,1.07Q433.62,112,433.68,115.51Z" transform="translate(-51.74 -56.58)"/><path class="cls-22" d="M445.9,115.5l-2.55.09a4,4,0,0,1-.08-.78h-.16a4.45,4.45,0,0,1-3,1,4,4,0,0,1-3.28-1.49,5.44,5.44,0,0,1-1.21-3.54,6.6,6.6,0,0,1,1.32-4.1,4.35,4.35,0,0,1,3.67-1.75,3.81,3.81,0,0,1,2.29.57H443q0-2.53-.25-5.1l3-.09q-.17,2.5-.17,7.2T445.9,115.5Zm-2.7-2.44q0-3.43-.16-5.67a3,3,0,0,0-1.77-.52,2.34,2.34,0,0,0-2.11,1.05,4.62,4.62,0,0,0-.69,2.58,4.06,4.06,0,0,0,.67,2.34,2.11,2.11,0,0,0,1.85,1A2.74,2.74,0,0,0,443.21,113.06Z" transform="translate(-51.74 -56.58)"/><path class="cls-22" d="M457.5,109.31q0,.55-.06,1.43l-6.92.12a3.16,3.16,0,0,0,1,2,3.36,3.36,0,0,0,2.34.81,13.34,13.34,0,0,0,3.43-.48l-.21,2.08a10.88,10.88,0,0,1-3.67.54,5.57,5.57,0,0,1-4.25-1.56,5.25,5.25,0,0,1-1.48-3.75,6,6,0,0,1,1.4-4,4.79,4.79,0,0,1,3.89-1.68,4.32,4.32,0,0,1,3.38,1.24A4.63,4.63,0,0,1,457.5,109.31Zm-2.51-.1q0-2.47-2.11-2.47t-2.38,2.56Z" transform="translate(-51.74 -56.58)"/><path class="cls-22" d="M469.15,115.51h-2.86q.24-2.72.24-5.5a3.75,3.75,0,0,0-.5-2.29,1.86,1.86,0,0,0-1.52-.6,3.76,3.76,0,0,0-2.32.84q.05,4.19.05,7.55h-2.89q.19-3.36.19-5.29a21.49,21.49,0,0,0-.53-4.84l2.75-.3.18,1.14h.17a5,5,0,0,1,3.38-1.27,4.18,4.18,0,0,1,2.65.78,3.48,3.48,0,0,1,1,2.87q0,.31,0,.83t0,1.07Q469.09,112,469.15,115.51Z" transform="translate(-51.74 -56.58)"/><path class="cls-22" d="M485.34,109.2q0,.45,0,1.25l-7.38.13a3.87,3.87,0,0,0,1.21,2.63,4.06,4.06,0,0,0,2.93,1.06,11.37,11.37,0,0,0,3.06-.4l-.18,1.51a8.57,8.57,0,0,1-3,.42,5.63,5.63,0,0,1-4.26-1.53,5.16,5.16,0,0,1-1.47-3.72,6.31,6.31,0,0,1,1.34-4,4.34,4.34,0,0,1,3.59-1.69,4,4,0,0,1,3.15,1.22A4.58,4.58,0,0,1,485.34,109.2Zm-1.79,0q0-3-2.52-3t-3,3.14Z" transform="translate(-51.74 -56.58)"/><path class="cls-22" d="M496.92,115.51h-2q.24-2.82.24-6.17a3,3,0,0,0-.67-2.26,2.77,2.77,0,0,0-1.92-.61,4.23,4.23,0,0,0-2.81,1.11q0,3.66,0,7.93h-2q.18-3.65.18-5.29a24.79,24.79,0,0,0-.47-4.88l1.89-.27.2,1.31h.09a5,5,0,0,1,3.41-1.44,4.29,4.29,0,0,1,2.76.79,3.44,3.44,0,0,1,1,2.81q0,.2,0,.81t0,.81Q496.87,112,496.92,115.51Z" transform="translate(-51.74 -56.58)"/><path class="cls-22" d="M514.83,105.18a4.19,4.19,0,0,1-1.91,3.79,8.48,8.48,0,0,1-4.68,1.22c-.34,0-.58,0-.72,0q0,2,.12,5.33h-3q.14-3.1.14-7.32,0-3.87-.14-6.67h1.87l1.53,0,2,0a6.15,6.15,0,0,1,3.45.92A3.13,3.13,0,0,1,514.83,105.18Zm-2.77.59q0-2.3-3.05-2.3a8.64,8.64,0,0,0-1.61.16q.12,2,.12,4.6l.62,0Q512.06,108.25,512.06,105.77Z" transform="translate(-51.74 -56.58)"/><path class="cls-22" d="M519.71,115.51h-2.93q.16-3.68.16-8a64.59,64.59,0,0,0-.33-7.12l3.1-.17q-.16,3-.16,7.29T519.71,115.51Z" transform="translate(-51.74 -56.58)"/><path class="cls-22" d="M531.51,109.31q0,.55-.06,1.43l-6.92.12a3.16,3.16,0,0,0,1,2,3.36,3.36,0,0,0,2.34.81,13.34,13.34,0,0,0,3.43-.48l-.21,2.08a10.88,10.88,0,0,1-3.67.54,5.57,5.57,0,0,1-4.25-1.56,5.25,5.25,0,0,1-1.48-3.75,6,6,0,0,1,1.4-4,4.79,4.79,0,0,1,3.89-1.68,4.32,4.32,0,0,1,3.38,1.24A4.63,4.63,0,0,1,531.51,109.31Zm-2.51-.1q0-2.47-2.11-2.47t-2.38,2.56Z" transform="translate(-51.74 -56.58)"/><path class="cls-22" d="M541.21,113.36l-.05,2.15H533l.15-2.05a35,35,0,0,0,2.52-3,13.11,13.11,0,0,0,2.13-3.06v-.17q-2.56,0-4.71.18l.05-2.12H541l-.16,2.06q-.68.74-2.42,3a12.9,12.9,0,0,0-2,3v.16Q538.81,113.56,541.21,113.36Z" transform="translate(-51.74 -56.58)"/><path class="cls-22" d="M546.05,115.51h-2.89q.15-2.22.15-5.1a30.24,30.24,0,0,0-.37-5l3.09-.31q-.14,2.08-.14,5.32Q545.9,113.16,546.05,115.51Zm.49-13.45a1.84,1.84,0,0,1-.5,1.28,1.79,1.79,0,0,1-1.39.55,1.5,1.5,0,0,1-1.18-.47,1.64,1.64,0,0,1-.42-1.14,1.8,1.8,0,0,1,.5-1.27,1.82,1.82,0,0,1,1.4-.54,1.49,1.49,0,0,1,1.18.47A1.64,1.64,0,0,1,546.54,102.06Z" transform="translate(-51.74 -56.58)"/><path class="cls-22" d="M557.81,109.31q0,.55-.06,1.43l-6.92.12a3.16,3.16,0,0,0,1,2,3.36,3.36,0,0,0,2.34.81,13.34,13.34,0,0,0,3.43-.48l-.21,2.08a10.88,10.88,0,0,1-3.67.54,5.57,5.57,0,0,1-4.25-1.56,5.25,5.25,0,0,1-1.48-3.75,6,6,0,0,1,1.4-4,4.8,4.8,0,0,1,3.89-1.68,4.32,4.32,0,0,1,3.38,1.24A4.63,4.63,0,0,1,557.81,109.31Zm-2.51-.1q0-2.47-2.11-2.47t-2.38,2.56Z" transform="translate(-51.74 -56.58)"/><path class="cls-22" d="M566.84,105.3l-.62,2.51a4.26,4.26,0,0,0-1.61-.32,2,2,0,0,0-2.08,1.42q0,4.29.06,6.6h-2.86q.18-3.23.18-5.29a21.13,21.13,0,0,0-.54-4.84l2.74-.3q.18,1.18.18,1.39h.17a3,3,0,0,1,2.63-1.51A5.12,5.12,0,0,1,566.84,105.3Z" transform="translate(-51.74 -56.58)"/><rect class="cls-23" x="173.7" y="117.45" width="2.76" height="35.65"/><polygon class="cls-24" points="400.98 96.1 421.65 118.65 173.68 118.65 173.68 75.28 421.65 75.28 400.98 96.1"/><circle class="cls-23" cx="175.8" cy="65.65" r="4.25"/><path class="cls-25" d="M247.59,164.67h-2.22l-.83-4.59H239.8l-.8,4.59h-2.22l4.38-22.33h2Zm-3.38-6.4-1.48-8.56q-.21-1.1-.41-3.23-.12-1.1-.15-1.33h-.12q-.09.59-.24,1.84-.21,1.81-.36,2.73l-1.3,8.56Z" transform="translate(-51.74 -56.58)"/><path class="cls-25" d="M257.57,164a5.13,5.13,0,0,1-1.36.67,4.78,4.78,0,0,1-1.48.25,4.49,4.49,0,0,1-3.05-1.05,6.68,6.68,0,0,1-1.85-2.69,14.88,14.88,0,0,1-.87-3.41,26.23,26.23,0,0,1-.24-3.51q0-2,.15-3.91a17.82,17.82,0,0,1,.74-3.81,7.66,7.66,0,0,1,1.9-3.24,4.64,4.64,0,0,1,3.44-1.3,6,6,0,0,1,1.44.18,3.28,3.28,0,0,1,1.2.53V145a8.1,8.1,0,0,0-1.3-.73,3.31,3.31,0,0,0-1.3-.25,2.89,2.89,0,0,0-2.13.83,5.28,5.28,0,0,0-1.26,2.19,14.16,14.16,0,0,0-.58,3q-.15,1.6-.15,3.41,0,1.57.09,3a17,17,0,0,0,.46,2.93,6.48,6.48,0,0,0,1.2,2.56,2.7,2.7,0,0,0,2.22,1,3.91,3.91,0,0,0,1.41-.27,5.87,5.87,0,0,0,1.35-.74Z" transform="translate(-51.74 -56.58)"/><path class="cls-25" d="M267.46,144.23h-3.35v20.44H262V144.23H258.7v-1.9h8.77Z" transform="translate(-51.74 -56.58)"/><path class="cls-25" d="M271.52,164.67h-2.07V142.34h2.07Z" transform="translate(-51.74 -56.58)"/><path class="cls-25" d="M282.81,143.08a6.24,6.24,0,0,1,1.67,2.71,16.35,16.35,0,0,1,.73,3.55q.18,1.88.18,4.16,0,2.07-.16,3.91a17.31,17.31,0,0,1-.7,3.57,6.78,6.78,0,0,1-1.66,2.86,4,4,0,0,1-3,1.13,4.13,4.13,0,0,1-2.86-1,6.1,6.1,0,0,1-1.67-2.64,15.9,15.9,0,0,1-.76-3.58q-.19-1.94-.19-4.25a41.89,41.89,0,0,1,.21-4.37,14.89,14.89,0,0,1,.8-3.58,6.06,6.06,0,0,1,1.69-2.56,4.57,4.57,0,0,1,5.69.09Zm-4.72,1.85a5.64,5.64,0,0,0-1,2.25,16.82,16.82,0,0,0-.41,2.9q-.09,1.53-.09,3.42t.09,3.45a17.06,17.06,0,0,0,.41,2.89,5.52,5.52,0,0,0,1,2.25,2.36,2.36,0,0,0,3.64,0,5.53,5.53,0,0,0,1-2.25,17.08,17.08,0,0,0,.41-2.89q.09-1.5.09-3.45t-.09-3.47a17.07,17.07,0,0,0-.41-2.87,5.53,5.53,0,0,0-1-2.25,2.35,2.35,0,0,0-3.64,0Z" transform="translate(-51.74 -56.58)"/><path class="cls-25" d="M297.59,164.67h-1.81l-5-15a17.78,17.78,0,0,1-.5-1.78l-.27-1.1h-.12l.09,1.24q.15,2.1.15,3.08v13.57h-1.81V142.34h1.81l5.12,15.52q.27.77.68,2.31H296l-.09-1.1q-.12-1.21-.12-1.87V142.34h1.81Z" transform="translate(-51.74 -56.58)"/><path class="cls-25" d="M314.47,144.23H309.4v7.88h4.8V154h-4.8v10.66h-2.07V142.34h7.14Z" transform="translate(-51.74 -56.58)"/><path class="cls-25" d="M325.22,143.08a6.24,6.24,0,0,1,1.67,2.71,16.36,16.36,0,0,1,.73,3.55q.18,1.88.18,4.16,0,2.07-.16,3.91a17.31,17.31,0,0,1-.7,3.57,6.78,6.78,0,0,1-1.66,2.86,4,4,0,0,1-3,1.13,4.13,4.13,0,0,1-2.86-1,6.1,6.1,0,0,1-1.67-2.64,15.9,15.9,0,0,1-.76-3.58q-.19-1.94-.19-4.25a41.89,41.89,0,0,1,.21-4.37,14.89,14.89,0,0,1,.8-3.58,6.06,6.06,0,0,1,1.69-2.56,4.57,4.57,0,0,1,5.69.09Zm-4.72,1.85a5.64,5.64,0,0,0-1,2.25,16.82,16.82,0,0,0-.41,2.9q-.09,1.53-.09,3.42t.09,3.45a17.06,17.06,0,0,0,.41,2.89,5.52,5.52,0,0,0,1,2.25,2.36,2.36,0,0,0,3.64,0,5.53,5.53,0,0,0,1-2.25,17.08,17.08,0,0,0,.41-2.89q.09-1.5.09-3.45t-.09-3.47a17.06,17.06,0,0,0-.41-2.87,5.53,5.53,0,0,0-1-2.25,2.35,2.35,0,0,0-3.64,0Z" transform="translate(-51.74 -56.58)"/><path class="cls-25" d="M330.7,164.67V142.34h2.22a16.93,16.93,0,0,1,2.44.15,4.58,4.58,0,0,1,1.84.7,3.64,3.64,0,0,1,1.33,1.72A8.26,8.26,0,0,1,339,148a13.32,13.32,0,0,1-.16,2.15,5.3,5.3,0,0,1-.62,1.79,3.51,3.51,0,0,1-1.29,1.29,4.35,4.35,0,0,1-2.13.52l4.95,10.9h-2.19l-4.74-10.93h-.06v10.93Zm2.07-12.62h.74q2.1,0,2.74-.83a5.4,5.4,0,0,0,.64-3.11,8.44,8.44,0,0,0-.21-2.1,2.32,2.32,0,0,0-.64-1.15,2.15,2.15,0,0,0-1.08-.5,10.46,10.46,0,0,0-1.78-.12h-.41Z" transform="translate(-51.74 -56.58)"/><path class="cls-25" d="M357.42,164.67h-2.07V153.15h-5.12v11.52h-2.07V142.34h2.07v8.91h5.12v-8.91h2.07Z" transform="translate(-51.74 -56.58)"/><path class="cls-25" d="M370,164.67h-2.22l-.83-4.59h-4.74l-.8,4.59h-2.22l4.38-22.33h2Zm-3.38-6.4-1.48-8.56q-.21-1.1-.41-3.23-.12-1.1-.15-1.33h-.12q-.09.59-.24,1.84-.21,1.81-.36,2.73l-1.3,8.56Z" transform="translate(-51.74 -56.58)"/><path class="cls-25" d="M371.78,164.67V142.34h2.31a15.74,15.74,0,0,1,2.46.16,4.39,4.39,0,0,1,1.82.73,3.73,3.73,0,0,1,1.29,1.75,8.74,8.74,0,0,1,.47,3.17q0,3.23-1.29,4.53t-4.46,1.3h-.53v10.69Zm2.07-12.59h.8a5.78,5.78,0,0,0,1.73-.21,2,2,0,0,0,1-.68,5.81,5.81,0,0,0,.62-3.05,4.59,4.59,0,0,0-.77-3.11,4.12,4.12,0,0,0-3-.8h-.42Z" transform="translate(-51.74 -56.58)"/><path class="cls-25" d="M382.38,164.67V142.34h2.31a15.75,15.75,0,0,1,2.46.16,4.39,4.39,0,0,1,1.82.73,3.73,3.73,0,0,1,1.29,1.75,8.71,8.71,0,0,1,.47,3.17q0,3.23-1.29,4.53T385,154h-.53v10.69Zm2.07-12.59h.8a5.78,5.78,0,0,0,1.73-.21,2,2,0,0,0,1-.68,5.8,5.8,0,0,0,.62-3.05,4.59,4.59,0,0,0-.77-3.11,4.12,4.12,0,0,0-3-.8h-.41Z" transform="translate(-51.74 -56.58)"/><path class="cls-25" d="M395.06,164.67H393V142.34h2.07Z" transform="translate(-51.74 -56.58)"/><path class="cls-25" d="M407.91,164.67h-1.81l-5-15a18.06,18.06,0,0,1-.5-1.78l-.27-1.1h-.12l.09,1.24q.15,2.1.15,3.08v13.57h-1.81V142.34h1.81l5.12,15.52q.27.77.68,2.31h.09l-.09-1.1q-.12-1.21-.12-1.87V142.34h1.81Z" transform="translate(-51.74 -56.58)"/><path class="cls-25" d="M418.52,144.23h-4.95v7.88h4.8V154h-4.8v8.77h4.95v1.9h-7V142.34h7Z" transform="translate(-51.74 -56.58)"/><path class="cls-25" d="M429.27,145.86a7.2,7.2,0,0,0-1.54-1.33,3.27,3.27,0,0,0-1.75-.47,2.9,2.9,0,0,0-2.36,1.05,3.88,3.88,0,0,0-.87,2.56,4.32,4.32,0,0,0,.3,1.64,4.62,4.62,0,0,0,.8,1.3,7.21,7.21,0,0,0,1.07,1q.56.43,1.51,1.08l.15.09q.92.65,1.53,1.16a7.48,7.48,0,0,1,1.13,1.17,5.52,5.52,0,0,1,.83,1.54,5.85,5.85,0,0,1,.31,2A7.28,7.28,0,0,1,430,161a6.65,6.65,0,0,1-1.11,2,5.16,5.16,0,0,1-4.1,1.94,5.66,5.66,0,0,1-3.52-1.13v-2.7a6.41,6.41,0,0,0,1.69,1.32,4,4,0,0,0,1.93.49,3,3,0,0,0,2.47-1.16,4.38,4.38,0,0,0,.9-2.78,4,4,0,0,0-.84-2.64,13.05,13.05,0,0,0-2.56-2.19l-.38-.27q-.89-.62-1.51-1.14a7.87,7.87,0,0,1-1.15-1.2,5.44,5.44,0,0,1-.84-1.57,6.18,6.18,0,0,1-.31-2,7.11,7.11,0,0,1,.34-2.21,6,6,0,0,1,1-1.9,4.85,4.85,0,0,1,1.63-1.33,4.67,4.67,0,0,1,2.15-.49,6.14,6.14,0,0,1,3.52,1.19Z" transform="translate(-51.74 -56.58)"/><path class="cls-25" d="M441,145.42a7.33,7.33,0,0,0-1.58-1.36,3.35,3.35,0,0,0-1.79-.48,3,3,0,0,0-2.41,1.08,4,4,0,0,0-.89,2.62,4.4,4.4,0,0,0,.3,1.68,4.7,4.7,0,0,0,.82,1.33,7.38,7.38,0,0,0,1.09,1q.58.44,1.55,1.11l.15.09q.94.67,1.56,1.18a7.74,7.74,0,0,1,1.15,1.2,5.63,5.63,0,0,1,.85,1.58,6,6,0,0,1,.32,2,7.45,7.45,0,0,1-.39,2.42A6.8,6.8,0,0,1,440.6,163a5.28,5.28,0,0,1-4.2,2,5.78,5.78,0,0,1-3.61-1.15v-2.76a6.59,6.59,0,0,0,1.73,1.35,4.13,4.13,0,0,0,2,.5,3,3,0,0,0,2.53-1.18,4.48,4.48,0,0,0,.92-2.85,4.06,4.06,0,0,0-.86-2.7,13.31,13.31,0,0,0-2.62-2.24l-.39-.27q-.91-.64-1.55-1.17a8,8,0,0,1-1.18-1.23,5.54,5.54,0,0,1-.86-1.61,6.3,6.3,0,0,1-.32-2.09,7.28,7.28,0,0,1,.35-2.26,6.18,6.18,0,0,1,1-1.94,5,5,0,0,1,1.67-1.36,4.78,4.78,0,0,1,2.2-.5,6.29,6.29,0,0,1,3.61,1.21Z" transform="translate(-51.74 -56.58)"/><path class="cls-26" d="M236.37,183.51h1.83l1.95,5.8a53.16,53.16,0,0,1,1.5,5.25q-.24-1.69-.35-3.05t-.11-2.57v-5.42h2V198h-1.84l-2.19-6.54q-.3-.91-.57-1.87t-.49-2-.06-.32l-.1-.43,0,.42q0,.17,0,.3l.1,1.48.1,1.8c0,.1,0,.22,0,.37s0,.31,0,.49l.1,6.34h-1.93Z" transform="translate(-51.74 -56.58)"/><path class="cls-26" d="M246.16,183.51h5.21v1.66h-3.25v4.6H251v1.66h-2.88v5h3.25V198h-5.21Z" transform="translate(-51.74 -56.58)"/><path class="cls-26" d="M253.94,183.51h2.41a6.07,6.07,0,0,1,1.86.25,2.94,2.94,0,0,1,1.24.84,5.27,5.27,0,0,1,1.17,2.35,17.75,17.75,0,0,1,.35,4,16.3,16.3,0,0,1-.39,3.92,4.29,4.29,0,0,1-1.24,2.21q-1.06,1-3.81,1h-1.58Zm2,12.83a2.49,2.49,0,0,0,2.39-1.08,9.53,9.53,0,0,0,.62-4.21,12.23,12.23,0,0,0-.59-4.62,2.19,2.19,0,0,0-2.18-1.26h-.25Z" transform="translate(-51.74 -56.58)"/><path class="cls-26" d="M263.69,183.51h5.21v1.66h-3.25v4.6h2.88v1.66h-2.88v5h3.25V198h-5.21Z" transform="translate(-51.74 -56.58)"/><path class="cls-26" d="M271.47,183.51H274a3.29,3.29,0,0,1,2.38.76,4.11,4.11,0,0,1,1,3,5.19,5.19,0,0,1-.52,2.51A2.24,2.24,0,0,1,275.4,191l2.67,7.07h-2l-2.67-7.12V198h-2Zm2,6.44a2.07,2.07,0,0,0,1.61-.53,2.66,2.66,0,0,0,.47-1.78,5.79,5.79,0,0,0-.1-1.16,2.07,2.07,0,0,0-.31-.78,1.26,1.26,0,0,0-.55-.44,2,2,0,0,0-.8-.14h-.33Z" transform="translate(-51.74 -56.58)"/><path class="cls-26" d="M280.36,183.51h2v12.88h3.2V198h-5.16Z" transform="translate(-51.74 -56.58)"/><path class="cls-26" d="M290.36,183.51h1.53L295,198h-1.94l-.55-2.83h-2.88l-.56,2.83H287.2Zm1.87,10.19-.43-2.32q-.43-2.36-.71-5-.13,1.31-.34,2.65t-.49,2.85l-.36,1.86Z" transform="translate(-51.74 -56.58)"/><path class="cls-26" d="M296.93,183.51h1.83l2,5.8a53.29,53.29,0,0,1,1.5,5.25q-.24-1.69-.35-3.05t-.11-2.57v-5.42h2V198h-1.84l-2.19-6.54q-.3-.91-.57-1.87t-.49-2-.06-.32l-.1-.43,0,.42c0,.12,0,.21,0,.3l.1,1.48.1,1.8q0,.15,0,.37c0,.14,0,.31,0,.49l.1,6.34h-1.93Z" transform="translate(-51.74 -56.58)"/><path class="cls-26" d="M306.72,183.51h2.41a6.07,6.07,0,0,1,1.86.25,2.94,2.94,0,0,1,1.24.84,5.27,5.27,0,0,1,1.17,2.35,17.75,17.75,0,0,1,.35,4,16.3,16.3,0,0,1-.39,3.92,4.29,4.29,0,0,1-1.24,2.21q-1.06,1-3.81,1h-1.58Zm2,12.83a2.49,2.49,0,0,0,2.39-1.08,9.53,9.53,0,0,0,.62-4.21,12.23,12.23,0,0,0-.59-4.62,2.19,2.19,0,0,0-2.18-1.26h-.25Z" transform="translate(-51.74 -56.58)"/><path class="cls-1" d="M220.92,215.19a5.81,5.81,0,0,0,5.81,5.81V209.38A5.81,5.81,0,0,0,220.92,215.19Z" transform="translate(-51.74 -56.58)"/><path class="cls-7" d="M226.73,209.38V221a5.81,5.81,0,0,0,0-11.62Z" transform="translate(-51.74 -56.58)"/><path class="cls-22" d="M302,56.59v74.66h0c-20.53.22-34.3-15.64-32.64-40.81.52-7.87,4.68-14.38,9.87-19.52-2.11-1.51-2.9-3.84-3.27-6.43a22.43,22.43,0,0,0,8,2.27l.94-.71c-2-1.1-2.75-3-3.07-5.21a16.27,16.27,0,0,0,8.2,1.74,73.81,73.81,0,0,1,12-6Z" transform="translate(-51.74 -56.58)"/><path class="cls-27" d="M302,131.25V56.59a73.65,73.65,0,0,1,11.72,5.94,16.09,16.09,0,0,0,8.47-1.7c-.32,2.23-1.05,4.22-3.23,5.3l.84.65a22.43,22.43,0,0,0,8.27-2.29c-.39,2.65-1.2,5-3.45,6.55,5.14,5.12,9.29,11.59,10,19.4C336.71,115.23,322.41,131,302,131.25Z" transform="translate(-51.74 -56.58)"/><circle class="cls-28" cx="238.43" cy="26.95" r="10.59"/><circle class="cls-5" cx="238.43" cy="26.95" r="7.14"/><polygon class="cls-29" points="238.43 20.04 238.73 23.12 239.51 20.13 239.32 23.22 240.56 20.38 239.9 23.4 241.56 20.8 240.43 23.68 242.49 21.36 240.92 24.03 243.31 22.07 241.34 24.46 244.01 22.89 241.7 24.94 244.58 23.81 241.97 25.48 244.99 24.81 242.16 26.05 245.25 25.87 242.25 26.65 245.33 26.95 242.25 27.25 245.25 28.03 242.16 27.84 244.99 29.08 241.97 28.41 244.58 30.08 241.7 28.95 244.01 31 241.34 29.44 243.31 31.83 240.92 29.86 242.49 32.53 240.43 30.22 241.56 33.1 239.9 30.49 240.56 33.51 239.32 30.68 239.51 33.77 238.73 30.77 238.43 33.85 238.13 30.77 237.35 33.77 237.53 30.68 236.29 33.51 236.96 30.49 235.29 33.1 236.43 30.22 234.37 32.53 235.94 29.86 233.55 31.83 235.51 29.44 232.84 31 235.16 28.95 232.28 30.08 234.88 28.41 231.86 29.08 234.7 27.84 231.61 28.03 234.6 27.25 231.53 26.95 234.6 26.65 231.61 25.87 234.7 26.05 231.86 24.81 234.88 25.48 232.28 23.81 235.16 24.94 232.84 22.89 235.51 24.46 233.55 22.07 235.94 24.03 234.37 21.36 236.43 23.68 235.29 20.8 236.96 23.4 236.29 20.38 237.53 23.22 237.35 20.13 238.13 23.12 238.43 20.04"/><circle class="cls-30" cx="238.43" cy="26.95" r="5.37"/><circle class="cls-25" cx="236.57" cy="24.71" r="1.16"/><circle class="cls-28" cx="262.02" cy="26.95" r="10.59"/><circle class="cls-5" cx="262.02" cy="26.95" r="7.14"/><polygon class="cls-29" points="262.02 20.04 262.33 23.12 263.11 20.13 262.92 23.22 264.16 20.38 263.49 23.4 265.16 20.8 264.03 23.68 266.08 21.36 264.52 24.03 266.91 22.07 264.94 24.46 267.61 22.89 265.3 24.94 268.18 23.81 265.57 25.48 268.59 24.81 265.75 26.05 268.84 25.87 265.85 26.65 268.93 26.95 265.85 27.25 268.84 28.03 265.75 27.84 268.59 29.08 265.57 28.41 268.18 30.08 265.3 28.95 267.61 31 264.94 29.44 266.91 31.83 264.52 29.86 266.08 32.53 264.03 30.22 265.16 33.1 263.49 30.49 264.16 33.51 262.92 30.68 263.11 33.77 262.33 30.77 262.02 33.85 261.72 30.77 260.94 33.77 261.13 30.68 259.89 33.51 260.56 30.49 258.89 33.1 260.02 30.22 257.97 32.53 259.53 29.86 257.14 31.83 259.11 29.44 256.44 31 258.75 28.95 255.87 30.08 258.48 28.41 255.46 29.08 258.3 27.84 255.21 28.03 258.2 27.25 255.12 26.95 258.2 26.65 255.21 25.87 258.3 26.05 255.46 24.81 258.48 25.48 255.87 23.81 258.75 24.94 256.44 22.89 259.11 24.46 257.14 22.07 259.53 24.03 257.97 21.36 260.02 23.68 258.89 20.8 260.56 23.4 259.89 20.38 261.13 23.22 260.94 20.13 261.72 23.12 262.02 20.04"/><circle class="cls-30" cx="262.02" cy="26.95" r="5.37"/><circle class="cls-25" cx="260.17" cy="24.71" r="1.16"/><polygon class="cls-29" points="249.11 30.76 247.73 33.55 250.23 42.75 250.23 30.76 249.11 30.76"/><polygon class="cls-5" points="250.23 30.76 250.23 42.75 252.72 33.55 251.34 30.76 250.23 30.76"/><path class="cls-5" d="M283.21,99.68c.29,2.66-.49,5.73-4,8.85-2.75,2.46-4.62,8.85-5.25,11.59a.6.6,0,0,1-1.05.24c-2.47-3.16-9.7-12.73-10.63-17.48a10.58,10.58,0,1,1,20.9-3.2Z" transform="translate(-51.74 -56.58)"/><path class="cls-5" d="M320.72,99.68c-.29,2.66.49,5.73,4,8.85,2.75,2.46,4.62,8.85,5.25,11.59a.6.6,0,0,0,1.05.24c2.47-3.16,9.7-12.73,10.63-17.48a10.58,10.58,0,1,0-20.9-3.2Z" transform="translate(-51.74 -56.58)"/><path class="cls-5" d="M291.93,131.25a6.48,6.48,0,0,1-1.16,3.47,6.48,6.48,0,0,1-1.16-3.47c0-1.91.52-3.47,1.16-3.47S291.93,129.33,291.93,131.25Z" transform="translate(-51.74 -56.58)"/><path class="cls-5" d="M294.55,131.25a6.48,6.48,0,0,0,1.16,3.47,6.48,6.48,0,0,0,1.16-3.47c0-1.91-.52-3.47-1.16-3.47S294.55,129.33,294.55,131.25Z" transform="translate(-51.74 -56.58)"/><path class="cls-5" d="M294.76,131.25a6.72,6.72,0,0,1-1.52,3.91,6.72,6.72,0,0,1-1.52-3.91c0-2.16.68-3.91,1.52-3.91S294.76,129.09,294.76,131.25Z" transform="translate(-51.74 -56.58)"/><path class="cls-5" d="M312,131.25a6.48,6.48,0,0,0,1.16,3.47,6.48,6.48,0,0,0,1.16-3.47c0-1.91-.52-3.47-1.16-3.47S312,129.33,312,131.25Z" transform="translate(-51.74 -56.58)"/><path class="cls-5" d="M309.38,131.25a6.48,6.48,0,0,1-1.16,3.47,6.48,6.48,0,0,1-1.16-3.47c0-1.91.52-3.47,1.16-3.47S309.38,129.33,309.38,131.25Z" transform="translate(-51.74 -56.58)"/><path class="cls-5" d="M309.18,131.25a6.72,6.72,0,0,0,1.52,3.91,6.72,6.72,0,0,0,1.52-3.91c0-2.16-.68-3.91-1.52-3.91S309.18,129.09,309.18,131.25Z" transform="translate(-51.74 -56.58)"/><path class="cls-5" d="M290.76,107.17h0A3.87,3.87,0,0,1,288,106a.79.79,0,1,1,1.15-1.09,2.28,2.28,0,0,0,1.63.7,2.31,2.31,0,0,0,1.72-.71.79.79,0,1,1,1.13,1.11A3.92,3.92,0,0,1,290.76,107.17Z" transform="translate(-51.74 -56.58)"/><path class="cls-5" d="M290.76,118.11h0a3.86,3.86,0,0,1-2.77-1.21.79.79,0,1,1,1.16-1.08,2.27,2.27,0,0,0,1.63.7,2.44,2.44,0,0,0,1.72-.71.79.79,0,0,1,1.13,1.11A3.91,3.91,0,0,1,290.76,118.11Z" transform="translate(-51.74 -56.58)"/><path class="cls-5" d="M302,117.63h0a3.86,3.86,0,0,1-2.77-1.2.79.79,0,0,1,1.16-1.08,2.27,2.27,0,0,0,1.63.7,2.21,2.21,0,0,0,1.72-.71.79.79,0,0,1,1.13,1.11A3.91,3.91,0,0,1,302,117.63Z" transform="translate(-51.74 -56.58)"/><path class="cls-5" d="M302.21,107.17h0a3.88,3.88,0,0,1-2.77-1.19.79.79,0,1,1,1.15-1.09,2.28,2.28,0,0,0,1.63.7,2.3,2.3,0,0,0,1.72-.71A.79.79,0,1,1,305,106,3.92,3.92,0,0,1,302.21,107.17Z" transform="translate(-51.74 -56.58)"/><path class="cls-5" d="M287.36,112.73h0a3.87,3.87,0,0,1-2.77-1.19.79.79,0,0,1,1.15-1.09,2.28,2.28,0,0,0,1.63.7,2.31,2.31,0,0,0,1.72-.71.79.79,0,1,1,1.13,1.11A3.93,3.93,0,0,1,287.36,112.73Z" transform="translate(-51.74 -56.58)"/><path class="cls-5" d="M296.85,112.73h0a3.87,3.87,0,0,1-2.77-1.19.79.79,0,0,1,1.15-1.09,2.28,2.28,0,0,0,1.63.7,2.41,2.41,0,0,0,1.72-.71.79.79,0,0,1,1.13,1.11A3.93,3.93,0,0,1,296.85,112.73Z" transform="translate(-51.74 -56.58)"/><path class="cls-5" d="M296.85,122.8h0a3.87,3.87,0,0,1-2.77-1.19.79.79,0,1,1,1.15-1.09,2.28,2.28,0,0,0,1.63.7,2.51,2.51,0,0,0,1.72-.71.79.79,0,0,1,1.13,1.11A3.92,3.92,0,0,1,296.85,122.8Z" transform="translate(-51.74 -56.58)"/><path class="cls-5" d="M313.17,107.17a3.92,3.92,0,0,1-2.82-1.18.79.79,0,0,1,1.13-1.11,2.41,2.41,0,0,0,1.72.71,2.28,2.28,0,0,0,1.63-.7A.79.79,0,0,1,316,106a3.88,3.88,0,0,1-2.77,1.19Z" transform="translate(-51.74 -56.58)"/><path class="cls-5" d="M313.17,118.11a3.91,3.91,0,0,1-2.83-1.19.79.79,0,0,1,1.14-1.11,2.3,2.3,0,0,0,1.72.71,2.27,2.27,0,0,0,1.63-.7A.79.79,0,1,1,316,116.9a3.86,3.86,0,0,1-2.77,1.21Z" transform="translate(-51.74 -56.58)"/><path class="cls-5" d="M316.58,112.73a3.93,3.93,0,0,1-2.82-1.18.79.79,0,1,1,1.13-1.11,2.36,2.36,0,0,0,1.69.71h0a2.28,2.28,0,0,0,1.63-.7.79.79,0,0,1,1.15,1.09,3.87,3.87,0,0,1-2.77,1.19Z" transform="translate(-51.74 -56.58)"/><path class="cls-5" d="M307.09,112.73a3.93,3.93,0,0,1-2.82-1.18.79.79,0,1,1,1.13-1.11,2.31,2.31,0,0,0,1.72.71,2.28,2.28,0,0,0,1.63-.7.79.79,0,0,1,1.15,1.09,3.87,3.87,0,0,1-2.77,1.19Z" transform="translate(-51.74 -56.58)"/><path class="cls-5" d="M307.09,122.8a3.92,3.92,0,0,1-2.82-1.18.79.79,0,0,1,1.13-1.11,2.35,2.35,0,0,0,1.72.71,2.28,2.28,0,0,0,1.63-.7.79.79,0,1,1,1.15,1.09,3.88,3.88,0,0,1-2.77,1.19Z" transform="translate(-51.74 -56.58)"/></svg>